<?xml version="1.0" encoding="utf-8"?>
<!-- Generator: Adobe Illustrator 27.5.0, SVG Export Plug-In . SVG Version: 6.00 Build 0)  -->
<svg version="1.1" id="Layer_1" xmlns="http://www.w3.org/2000/svg" xmlns:xlink="http://www.w3.org/1999/xlink" x="0px" y="0px"
	 viewBox="0 0 331.064 237.506" style="enable-background:new 0 0 331.064 237.506;" xml:space="preserve">
<g>
	<g>
		<g>
			<g>
				<path style="fill:#F4D9BF;" d="M266.287,152.465c0,0-1.715,6.219-0.934,21.639c0.777,15.418,7.164,43.143,7.164,43.143h-8.566
					c0,0-11.213-37.172-8.721-65.621L266.287,152.465z"/>
				<path style="fill:#F4D9BF;" d="M265.174,169.01c-1.486-0.001-2.967-0.014-4.439-0.029c-1.863-0.018-3.729-0.064-5.588-0.142
					c-0.365-5.843-0.398-11.692,0.084-17.214l11.057,0.84C266.287,152.465,264.955,157.302,265.174,169.01z"/>
				<path style="fill:#CC4509;" d="M269.443,202.581c1.611,8.309,3.074,14.665,3.074,14.665h-8.566c0,0-1.768-5.864-3.74-14.708
					C263.334,203.166,266.703,203.449,269.443,202.581z"/>
				<path style="fill:#CC4509;" d="M260.58,204.18c-0.121-0.534-0.244-1.08-0.369-1.642c3.123,0.628,6.492,0.911,9.232,0.043
					c0.074,0.374,0.145,0.739,0.217,1.105C266.857,204.807,263.533,204.956,260.58,204.18z"/>
				<path style="fill:#CC4509;" d="M261.994,210.011c-0.092-0.37-0.186-0.735-0.287-1.132c2.967,0.523,6.059,0.451,8.914-0.42
					c0.107,0.52,0.211,1.012,0.313,1.494C268.701,211.191,265.059,210.809,261.994,210.011z"/>
				<path style="fill:#CC4509;" d="M263.049,214.047c-0.16-0.596-0.34-1.258-0.531-2.003c3.039,0.68,6.383,0.883,8.814-0.193
					c0.145,0.671,0.273,1.277,0.396,1.839C269.242,214.933,265.912,214.906,263.049,214.047z"/>
				<path style="fill:#CC4509;" d="M272.137,215.556c0.238,1.074,0.381,1.69,0.381,1.69h-8.566c0,0-0.119-0.408-0.328-1.132
					C266.486,216.771,269.586,216.674,272.137,215.556z"/>
				<path style="fill:#CC4509;" d="M261.221,206.884c-0.055-0.233-0.109-0.445-0.166-0.684c2.973,0.593,6.158,0.376,8.973-0.666
					c0.074,0.376,0.146,0.735,0.221,1.098C267.389,207.571,264.199,207.543,261.221,206.884z"/>
				<path style="fill:#6E8D00;" d="M265.174,217.246c0,0-1.234-4.498-3.42-3.573c-2.186,0.926-4.641,2.912-9.664,4.546
					c-5.021,1.637-9.809,5.259-9.576,10.161c0,0,0.699,2.454,4.439,2.571c3.736,0.117,29.082-0.585,30.602-1.636
					c1.52-1.052-2.219-14.953-2.219-14.953s-3.357-1.578-4.012-0.814v3.698H265.174z"/>
				<path style="fill:#00647E;" d="M271.324,216.771v-3.223c0.654-0.764,4.012,0.814,4.012,0.814s0.789,2.94,1.494,6.211
					C274.244,220.57,271.772,219.428,271.324,216.771z"/>
				<path style="fill:#00647E;" d="M260.853,228.506c5.27-0.189,12.065,0.018,16.889-2.867c0.244,1.894,0.266,3.364-0.188,3.677
					c-1.52,1.051-26.865,1.753-30.602,1.636c-3.74-0.117-4.439-2.571-4.439-2.571c-0.025-0.51,0.025-1.002,0.105-1.483
					C248.531,228.462,254.686,228.727,260.853,228.506z"/>
				<path style="fill:#F4D9BF;" d="M282.803,152.923c0,0,0.309,21.181,5.762,21.181c5.451,0,20.404,0,20.404,0
					s2.645,4.364,1.09,9.968c0,0-28.191,3.115-31.928-5.138c-3.738-8.256-5.219-26.469-5.219-26.469L282.803,152.923z"/>
				<path style="fill:#F4D9BF;" d="M275.185,168.745c-1.594-7.947-2.273-16.28-2.273-16.28l9.891,0.458c0,0,0.125,8.485,1.6,14.713
					C281.367,168.205,278.285,168.543,275.185,168.745z"/>
				<path style="fill:#CC4509;" d="M299.994,176.943c-0.137-0.766-0.297-1.806-0.566-2.84c4.99,0,9.541,0,9.541,0
					s2.645,4.364,1.09,9.968c0,0-4.627,0.511-10.373,0.568C300.344,182.149,300.439,179.52,299.994,176.943z"/>
				<path style="fill:#CC4509;" d="M308.58,174.104c0.246,0,0.389,0,0.389,0s2.645,4.364,1.09,9.968c0,0-0.209,0.022-0.584,0.056
					C309.818,180.723,309.59,177.408,308.58,174.104z"/>
				<path style="fill:#CC4509;" d="M305.805,174.104h0.863c1.135,3.352,1.314,6.723,0.916,10.186
					c-0.463,0.035-0.975,0.07-1.537,0.107C306.928,181.093,306.756,177.405,305.805,174.104z"/>
				<path style="fill:#CC4509;" d="M302.281,174.104h1.596c1.041,3.253,1.266,7.153,0.238,10.406
					c-0.547,0.024-1.111,0.049-1.703,0.065C303.143,181.046,303.26,177.565,302.281,174.104z"/>
				<path style="fill:#CC4509;" d="M299.994,176.943c-0.137-0.766-0.297-1.806-0.566-2.84h0.904
					c1.08,3.485,0.938,6.947,0.152,10.525c-0.266,0.004-0.527,0.008-0.799,0.011C300.344,182.149,300.439,179.52,299.994,176.943z"
					/>
				<path style="fill:#6E8D00;" d="M307.605,174.104c0,0-1.285-3.308,3.971-3.774c5.256-0.467,10.514-0.192,10.98,1.886
					c0.467,2.084,3.271,20.424,0,29.3c0,0-1.867,5.959-5.258,5.025c-3.389-0.934-6.75-17.055-6.75-17.055s-3.338-2.854-3.082-5.049
					c0.256-2.195,3.043-3.014,3.043-3.014S310.408,174.104,307.605,174.104z"/>
				<path style="fill:#00647E;" d="M312.258,174.592c-0.945,0.503-1.967,0.691-3.004,0.686c-0.404-0.701-0.94-1.175-1.648-1.175
					c0,0-1.285-3.308,3.971-3.774c0.603-0.054,1.207-0.1,1.807-0.132C313.973,171.819,314.035,173.646,312.258,174.592z"/>
				<path style="fill:#00647E;" d="M322.322,191.004c-0.104-7.043,0.094-15.064-4.111-20.759c2.371,0.227,4.09,0.823,4.346,1.97
					c0.467,2.084,3.271,20.424,0,29.3c0,0-1.867,5.959-5.258,5.025c-0.121-0.039-0.246-0.13-0.367-0.203
					C321.865,204.396,322.391,195.609,322.322,191.004z"/>
			</g>
		</g>
		<g>
			<g>
				<path style="fill:#9E2732;" d="M249.188,139.178c0,0-2.398,15.592-1.801,23.986c0,0,31.984,5.799,49.174-1.598
					c0,0-2.598-17.19-5.197-24.788L249.188,139.178z"/>
				<path style="fill:#9E2732;" d="M282.002,164.898c5.281-0.51,10.361-1.527,14.559-3.332c0,0-2.598-17.19-5.197-24.788
					l-12.115,0.689C280.648,146.555,281.301,155.73,282.002,164.898z"/>
				<path style="fill:#9E2732;" d="M279.639,143.908c4.313-0.28,8.891-1.398,13.037-2.556c-0.428-1.712-0.869-3.282-1.313-4.574
					l-42.176,2.399c0,0-0.109,0.699-0.271,1.873C257.781,144.308,274.223,144.261,279.639,143.908z"/>
				<g>
					<path style="fill:#F4D9BF;" d="M248.049,98.969c0,0-3.695,4.926-5.873,5.209c-1.91,0.252-4.549-7.514-5.166-9.424
						c-1.986,0.967-2.811,1.389-4.918,1.992c0.779,2.804,3.043,14.496,8.758,14.246c6.533-0.279,11.445-6.264,11.445-6.264
						L248.049,98.969z"/>
					<path style="opacity:0.8;fill:#EFCAA6;" d="M248.049,98.969c0,0-1.188,1.582-2.613,3.004c0.879,2.094,2.129,4.018,3.604,5.77
						c2.033-1.524,3.256-3.014,3.256-3.014L248.049,98.969z"/>
					<g>
						<path style="fill:#F4D9BF;" d="M237.904,87.436c-0.68-2.418-2.201-5.154-5.432-2.144c0,0-3.693-1.202-4.117,2.061
							c0,0-2.344,0.353-2.061,2.411c0,0-1.703,1.703-0.498,3.834c1.207,2.131,3.053,1.069,3.053,1.069s0.283,5.259,6.25,2.769
							c0.068-0.029,0.123-0.063,0.191-0.091c0.475,0.14,1.156,0.171,1.939-0.34c0.213-0.138,2.342-1.641,2.484-4.939
							C239.811,89.862,239.549,87.839,237.904,87.436z"/>
						<path style="fill:#E1B78C;" d="M235.848,89.945c-0.24,0.033-0.492,0.025-0.742,0.008c-1.254,0.031-2.5-0.174-2.27-1.229
							c0.141-0.643,0.795-0.824,1.375-0.867c0.918-0.068,1.797-0.115,2.637-0.412c0.002,0,0.002-0.003,0.002-0.006
							c-0.637,0.113-1.395,0.123-1.967,0.161c0.152-0.374,0.186-0.8,0.135-1.204c-0.072-0.148-0.156-0.285-0.244-0.421
							c-0.115,0.386-0.09,0.829-0.199,1.233c-0.039,0.137-0.076,0.277-0.115,0.416c-0.525,0.015-1.219-0.025-1.59,0.367
							c-0.609,0.662-0.295,1.947,0.635,2.132c0.65,0.13,1.461,0.221,2.141,0.092c-0.008,0.019-0.014,0.03-0.018,0.046
							c-0.363,0.209-0.582,0.912-0.725,1.372c-0.582,0.8-1.559,1.507-2.527,0.78c-0.645-0.484-0.807-1.857-0.887-2.591
							c-0.189-1.814,0.295-3.099,1.068-4.6c-0.609,0.46-0.912,1.012-1.203,1.816c-0.498,1.581-0.348,3.403,0.297,4.987
							c0.049,0.12,0.105,0.219,0.162,0.317c-2.781-0.018-4.186-4.137-2.916-6.31c0.008-0.014-0.006-0.02-0.016-0.012
							c-1.107,1.24-0.9,3.031-0.41,4.508c0.24,0.721,1.176,1.348,2.15,1.866c-0.072,0.692-0.617,1.374-1.441,1.116
							c-0.555-0.173-1.244-0.797-1.613-1.223c-0.432-0.504-0.912-1.254-1.049-1.811c-0.08-0.335-0.047-0.722-0.117-1.044
							c-0.086,0.369-0.145,0.734-0.166,1.1c0.063,0.369,0.236,0.755,0.383,1.072c0.453,0.957,1.021,1.559,1.91,2.126
							c0.211,0.134,0.402,0.199,0.584,0.235c-0.041,0.102-0.082,0.202-0.141,0.297c-0.275,0.436-0.988,0.605-1.455,0.639
							c-0.027,0.004-0.08,0.061-0.033,0.077c0.547,0.174,1.043,0.12,1.537-0.197c0.23-0.146,0.514-0.485,0.602-0.819
							c0.564-0.15,0.967-0.748,1.168-1.396c0.434,0.107,0.857,0.145,1.209,0.052c0.76,0.964,1.916,0.405,2.766-0.507
							c-0.229,0.842-0.1,1.801,0.574,2.251c-0.037-0.185-0.055-0.372-0.068-0.558c-0.01-0.029-0.029-0.06-0.033-0.092
							c-0.004-0.006-0.004-0.012-0.004-0.019c-0.531-1.091,0.322-2.538,0.713-3.623C235.973,90,235.93,89.934,235.848,89.945z"/>
					</g>
					<path style="fill:#F4A611;" d="M264.457,90.789l-2.529-1.267c0,0-6.041-0.937-16.494,9.4c0,0,2.951,7.972,8.451,10.869
						L264.457,90.789z"/>
					<path style="opacity:0.3;fill:#F4A611;" d="M262.07,89.597c-5.336,4.728-8.668,11.077-11.578,17.543
						c0.994,1.046,2.125,1.987,3.393,2.652l10.572-19.003L262.07,89.597z"/>
				</g>
				<path style="fill:#2C92C3;" d="M266.758,87.684l-5.061,1.727c0,0-5.488,11.605-9.322,24.51
					c-3.834,12.9-5.063,25.888-5.063,25.888s30.111,6.863,46.143-1.266c0,0-4.834-31.528-9.781-46.485
					C283.674,92.057,279.418,85.843,266.758,87.684z"/>
				<path style="fill:#0080BA;" d="M267.594,94.25c2.895,1.408,6.256,1.689,9.408,1.166c0.273-0.047,5.127,39.782,5.752,46.334
					c3.887-0.608,7.563-1.618,10.701-3.208c0,0-4.834-31.528-9.781-46.485c0,0-4.256-6.214-16.916-4.373l-2.707,0.926
					C264.004,90.948,265.086,93.028,267.594,94.25z"/>
			</g>
		</g>
	</g>
	<g>
		<g>
			<g>
				<g>
					<path style="fill:#E9BE95;" d="M49.365,169.451c0,0,1.32,4.782,0.719,16.626c-0.598,11.848-5.506,33.146-5.506,33.146h6.584
						c0,0,8.613-28.555,6.699-50.414L49.365,169.451z"/>
					<path style="opacity:0.6;fill:#E9BE95;" d="M58.127,176.729c0.033-2.696-0.043-5.355-0.266-7.919l-8.496,0.642
						c0,0,0.629,2.286,0.82,7.606C52.865,177.533,55.514,177.302,58.127,176.729z"/>
					<path style="fill:#B5221B;" d="M46.939,207.955c-1.236,6.386-2.361,11.268-2.361,11.268h6.584c0,0,1.355-4.504,2.873-11.297
						C51.635,208.41,49.047,208.624,46.939,207.955z"/>
					<path style="fill:#FFDE2D;" d="M50.221,219.224c0,0,0.951-3.457,2.627-2.744c1.68,0.711,3.566,2.237,7.426,3.494
						c3.859,1.256,7.537,4.039,7.357,7.808c0,0-0.535,1.886-3.41,1.976c-2.871,0.091-22.346-0.447-23.512-1.257
						c-1.168-0.808,1.703-11.487,1.703-11.487s2.578-1.214,3.084-0.632v2.843H50.221z"/>
					<path style="fill:#0A559F;" d="M60.273,219.974c-0.014-0.004-0.025-0.011-0.041-0.014c-3.596,0.77-5.52,5.326-5.975,9.599
						c4.533,0.16,8.744,0.236,9.963,0.198c2.875-0.09,3.41-1.976,3.41-1.976C67.811,224.013,64.133,221.23,60.273,219.974z"/>
					<path style="fill:#0D4075;" d="M53.541,227.876c-4.049-0.148-9.271,0.018-12.977-2.2c-0.189,1.454-0.205,2.582,0.145,2.824
						c1.166,0.81,20.641,1.348,23.512,1.257c2.875-0.09,3.41-1.976,3.41-1.976c0.023-0.392-0.018-0.77-0.08-1.138
						C63.01,227.844,58.279,228.05,53.541,227.876z"/>
				</g>
				<g>
					<path style="fill:#E9BE95;" d="M25.432,171.126c0,0,1.316,4.779,0.715,16.628c-0.596,11.848-5.502,33.145-5.502,33.145h6.582
						c0,0,8.617-28.555,6.699-50.418L25.432,171.126z"/>
					<path style="opacity:0.6;fill:#E9BE95;" d="M34.188,179.016c0.055-2.904-0.02-5.771-0.262-8.534l-8.494,0.645
						c0,0,0.678,2.493,0.836,8.292C28.826,179.987,31.557,179.657,34.188,179.016z"/>
					<path style="fill:#B5221B;" d="M23.006,209.631c-1.238,6.386-2.361,11.268-2.361,11.268h6.582c0,0,1.356-4.504,2.875-11.295
						C27.699,210.087,25.115,210.301,23.006,209.631z"/>
					<path style="fill:#FFDE2D;" d="M26.287,220.899c0,0,0.951-3.456,2.629-2.745c1.68,0.716,3.564,2.239,7.424,3.495
						c3.857,1.256,7.537,4.039,7.357,7.809c0,0-0.537,1.885-3.41,1.976c-2.873,0.089-22.35-0.449-23.514-1.257
						c-1.168-0.809,1.703-11.487,1.703-11.487s2.582-1.216,3.082-0.629v2.839H26.287z"/>
					<path style="fill:#0A559F;" d="M36.34,221.649c-0.016-0.007-0.027-0.007-0.039-0.015c-3.602,0.771-5.52,5.324-5.979,9.6
						c4.533,0.16,8.746,0.235,9.965,0.199c2.873-0.091,3.41-1.976,3.41-1.976C43.877,225.689,40.197,222.905,36.34,221.649z"/>
					<path style="fill:#0D4075;" d="M29.605,229.552c-4.047-0.145-9.27,0.018-12.975-2.2c-0.188,1.454-0.207,2.582,0.143,2.825
						c1.164,0.808,20.641,1.346,23.514,1.257c2.873-0.091,3.41-1.976,3.41-1.976c0.02-0.392-0.018-0.77-0.08-1.142
						C39.074,229.521,34.344,229.725,29.605,229.552z"/>
				</g>
				<path style="fill:#443021;" d="M18.17,140.515c0,0-3.229,7.658-1.91,17.115c1.314,9.45,2.871,18.908,2.871,18.908
					s18.787-0.004,24.889-2.274l0.24-7.302l1.555,7.181c0,0,10.414,0.598,19.986-3.47l-3.949-17.113l0.598-6.583L18.17,140.515z"/>
				<g style="opacity:0.5;">
					<path style="fill:#443021;" d="M36.061,165.436l2.428,1.613l0.387,8.353c2.07-0.298,3.883-0.669,5.145-1.139l0.24-7.302
						c0,0,4.279-1.436,6.611-3.771C50.871,163.19,42.166,166.512,36.061,165.436z"/>
					<path style="fill:#443021;" d="M61.852,153.56l0.598-6.583l-44.279-6.462c0,0-1.242,2.957-1.871,7.455
						c0.434-0.441,0.9-0.653,1.365-0.397c1.793,0.99,14,8.889,36.168,5.297c0,0,1.076-0.178,1.166,0.898
						c0.068,0.809,3.111,12.911,4.633,18.921c2.022-0.492,4.111-1.143,6.17-2.016L61.852,153.56z"/>
				</g>
				<g>
					<path style="fill:#E9BE95;" d="M76.748,95.622c0,0,5.006,3.441,6.131,1.356c1.125-2.082,4.783-14.674,4.783-14.674
						s-3.74-1.953-2.223-3.824l1.207-1.531c0,0-0.633-10.254,1.309-12.711c0,0,1.268-2.645,2.123-0.962
						c0.863,1.68-1.35,6.22-0.205,9.692c0,0,1.84-6.742,4.793-9.137c0,0,1.896-1.686,2.139-0.284c0.242,1.401-3.1,5.771-2.861,8.911
						c0,0,3.518-4.844,6.428-6.257c0,0,1.957-1.124,2.066,0.868c0.113,1.988-5.107,5.254-5.5,6.999c0,0,4.293-2.921,6.377-2.888
						c2.086,0.035,1.443,2.097-1.029,3.811c-2.477,1.712-3.658,2.148-3.658,2.148s0.734,6.268-3.699,6.994
						c0,0-1.65,18.187-9.053,20.555c-7.4,2.363-12.936-2.023-12.936-2.023L76.748,95.622z"/>
					<path style="fill:#E9BE95;" d="M82.42,97.439c-1.641,0.951-5.672-1.817-5.672-1.817l-3.809,7.044c0,0,3.514,2.77,8.678,2.711
						C82.264,102.773,82.662,100.07,82.42,97.439z"/>
					<path style="fill:#D8A87A;" d="M93.035,72.852c-1.414-0.129-2.813,1.069-3.807,1.95c-1.166,1.025-2.311,2.03-3.307,3.232
						c-0.02,0.02-0.01,0.084,0.023,0.059c1.113-0.773,2.1-1.682,3.146-2.526c0.252-0.264,0.502-0.538,0.75-0.81
						c0.635-0.693,1.324-1.314,2.285-1.443c0.533-0.068,0.975,0.449,0.783,0.962c-0.547,1.472-1.844,2.384-2.654,3.657
						c0.744,0.035,1.352,0.602,1.764,1.381c0.141,0.244,0.252,0.5,0.322,0.778c0.072,0.243,0.131,0.497,0.176,0.747
						c0.688-1.396,0.199-3.238-1.457-3.321C92.25,76.155,94.91,73.019,93.035,72.852z"/>
				</g>
				<path style="fill:#B5221B;" d="M56.033,93.188l0.596-1.033c0,0,2.143-2.121,7.602-1.264c5.457,0.857,17.066,4.178,17.066,4.178
					s-0.014,11.516-3.125,15.572c0,0-18.65-2.98-18.775-3.005C59.271,107.611,56.033,93.188,56.033,93.188z"/>
				<path style="opacity:0.4;fill:#AD6183;" d="M66.371,101.246c-3.033-0.565-6.049-1.064-8.957-1.963
					c0.896,3.941,1.916,8.338,1.982,8.352c0.125,0.024,18.775,3.005,18.775,3.005c1.121-1.457,1.832-3.875,2.291-6.378
					C75.822,103.006,71.102,102.124,66.371,101.246z"/>
				<path style="fill:#F8AD0B;" d="M47.102,89.381c0,0-3.949-0.268-6.104,0c0,0-19.508,31.141-25.609,53.518
					c0,0,16.037,13.283,48.824,5.504c0,0,1.557-41.851-5.385-57.363L47.102,89.381z"/>
				<g>
					<path style="fill:#FCDFBA;" d="M18.447,133.639c-0.358,0.944-0.703,1.886-1.031,2.812c4.832,3.45,19.342,11.13,46.932,5.206
						c0.008-1.041,0.016-2.183,0.014-3.408C38.404,143.798,24.043,137.29,18.447,133.639z"/>
					<path style="fill:#FCDFBA;" d="M16.357,139.637c-0.346,1.104-0.676,2.196-0.969,3.263c0,0,16.037,13.283,48.824,5.504
						c0,0,0.049-1.287,0.09-3.464C35.607,151.28,20.869,142.975,16.357,139.637z"/>
					<path style="fill:#FCDFBA;" d="M62.785,108.022c-0.152-1.233-0.318-2.446-0.502-3.635c-12.947,2.496-22.879,1.945-30.17,0.342
						c-0.475,0.869-0.957,1.762-1.447,2.682C37.969,109.492,48.504,110.62,62.785,108.022z"/>
					<path style="fill:#FCDFBA;" d="M60.18,94.735c-0.412-1.342-0.857-2.595-1.352-3.695l-11.727-1.659c0,0-3.949-0.268-6.104,0
						c0,0-1.359,2.173-3.461,5.761C43.564,96.027,51.066,96.151,60.18,94.735z"/>
					<path style="fill:#FCDFBA;" d="M61.732,101.197c-0.213-1.127-0.441-2.23-0.691-3.279c-10.445,1.791-18.836,1.572-25.389,0.477
						c-0.561,0.98-1.152,2.025-1.766,3.123C40.82,102.898,50.004,103.308,61.732,101.197z"/>
					<path style="fill:#FCDFBA;" d="M20.693,128.042c-0.351,0.829-0.695,1.658-1.027,2.487c5.865,3.655,19.904,9.571,44.678,4.454
						c-0.01-1.143-0.027-2.329-0.051-3.552C41.248,136.315,27.381,131.685,20.693,128.042z"/>
					<path style="fill:#FCDFBA;" d="M25.916,116.662c-0.383,0.773-0.76,1.551-1.135,2.34c7.158,3.21,19.789,6.268,39.156,2.521
						c-0.066-1.225-0.139-2.449-0.223-3.685C45.85,121.523,33.57,119.467,25.916,116.662z"/>
					<path style="fill:#FCDFBA;" d="M29.004,110.559c-0.508,0.975-1.016,1.964-1.525,2.971c7.559,2.598,19.285,4.355,35.986,1.064
						c-0.094-1.121-0.195-2.241-0.307-3.351C47.68,114.227,36.512,112.869,29.004,110.559z"/>
					<path style="fill:#FCDFBA;" d="M23.324,122.094c-0.438,0.947-0.867,1.897-1.293,2.853c6.832,3.54,20.303,7.701,42.182,3.228
						c-0.035-1.106-0.072-2.239-0.121-3.384C43.539,128.94,30.443,125.467,23.324,122.094z"/>
				</g>
				<path style="opacity:0.6;fill:#B8B8B7;" d="M58.828,91.04l-7.611-1.076c5.969,36.43,2.351,56.689,1.523,60.431
					c3.564-0.382,7.391-1.021,11.473-1.991C64.213,148.403,65.77,106.553,58.828,91.04z"/>
				<g>
					<path style="fill:#8D1E14;" d="M50.559,98.52c4.682-0.289,6.734-3.766,6.709-7.701l-10.166-1.438c0,0-1.586-0.104-3.297-0.115
						C42.809,93.788,44.99,98.856,50.559,98.52z"/>
					<path style="fill:#D8A87A;" d="M46.385,85.1l-1.197,7.225c0,0-0.48,2.669,3.109,3.404c3.59,0.739,5.746-1.293,6.105-2.613
						c0.359-1.314,1.006-6.22,1.006-6.22L46.385,85.1z"/>
					<path style="fill:#D8A87A;" d="M46.385,85.1l-1.197,7.225c0,0-0.48,2.669,3.109,3.404c3.59,0.739,5.746-1.293,6.105-2.613
						c0.359-1.314,1.006-6.22,1.006-6.22L46.385,85.1z"/>
					<path style="fill:#E9BE95;" d="M55.006,89.75c0.223-1.486,0.402-2.854,0.402-2.854L46.385,85.1l-0.584,3.528
						C48.861,89.752,51.906,90.135,55.006,89.75z"/>
				</g>
				<path style="fill:#E9BE95;" d="M85.922,78.033c0,0,4.797-5.039,6.324-5.581c1.525-0.537,4.398-0.718,2.783,1.257
					c-1.615,1.974-3.23,3.41-3.23,3.41s3.408,1.257,1.346,3.951C91.08,83.762,84.529,82.447,85.922,78.033z"/>
				<path style="opacity:0.6;fill:#B8B8B7;" d="M59.834,106.316c0.492-0.409,1.037-0.815,1.453-1.305
					c0.244-1.404-0.029-1.908-0.818-1.502c-1.576,0.658-2.92,1.744-4.23,2.814c-0.447,0.367-1.273-0.129-0.867-0.67
					c0.529-0.708,0.828-1.5,1.424-2.166c0.305-0.343,0.615-0.688,0.928-1.023c0.961-0.691,1.08-1.568,0.355-2.641
					c-1.242,1.211-2.316,2.453-3.766,3.445c-2.453,1.677-4.23,3.928-6.555,5.733c-2.154,1.677-4.793,2.957-7.19,4.251
					c-3.824,2.059-7.787,4.508-11.869,6.042c-1.471,0.556-3.023,0.983-4.498,0.917c-0.883,1.873-1.748,3.769-2.578,5.667
					c7.227,1.821,15.473-3.169,21.242-7.764c1.074-0.853,2.494-2.173,3.988-2.079c1.639,0.098,3.021,0.518,4.604-0.436
					c1.047-0.633,1.98-1.365,2.91-2.16c1.182-1.01,2.414-2.089,3.891-2.638c0.379-0.142,2.822-1.239,2.938-1.186
					c-0.979-0.444-2.074-0.539-3.133-0.639c-0.441-0.041-0.785-0.593-0.393-0.943C58.357,107.417,59.117,106.9,59.834,106.316z"/>
			</g>
		</g>
		<g>
			<g>
				<g>
					<g>
						<path style="fill:#F39200;" d="M267.352,125.956c0,58.897-47.746,106.647-106.645,106.647
							c-58.896,0-106.641-47.75-106.641-106.647c0-58.895,47.744-106.642,106.641-106.642
							C219.605,19.314,267.352,67.061,267.352,125.956z"/>
						<path style="fill:#E6332A;" d="M160.707,233.133c-59.096,0-107.17-48.082-107.17-107.177
							c0-59.095,48.074-107.177,107.17-107.177c59.098,0,107.176,48.082,107.176,107.177
							C267.883,185.051,219.805,233.133,160.707,233.133z M160.707,19.841c-58.51,0-106.109,47.603-106.109,106.115
							c0,58.512,47.6,106.111,106.109,106.111c58.514,0,106.117-47.6,106.117-106.111C266.824,67.443,219.221,19.841,160.707,19.841
							z"/>
					</g>
					<path style="fill:#E396B6;" d="M260.973,126.949c0,55.377-44.891,100.264-100.266,100.264
						c-55.373,0-100.264-44.887-100.264-100.264c0-55.375,44.891-100.268,100.264-100.268
						C216.082,26.682,260.973,71.574,260.973,126.949z"/>
					<path style="fill:#E364B6;" d="M257.328,126.228c0,53.367-43.258,96.62-96.621,96.62c-53.361,0-96.619-43.253-96.619-96.62
						c0-53.358,43.258-96.618,96.619-96.618C214.07,29.609,257.328,75.322,257.328,126.228z"/>
					<g>
						<path style="fill:#C0C0C0;" d="M254.268,125.956c0,51.672-41.891,93.556-93.561,93.556c-51.668,0-93.555-41.884-93.555-93.556
							c0-51.671,41.887-93.559,93.555-93.559C212.377,32.397,254.268,74.285,254.268,125.956z"/>
						<path style="fill:#A4A3A3;" d="M160.707,220.043c-51.879,0-94.084-42.208-94.084-94.087c0-51.884,42.205-94.09,94.084-94.09
							c51.883,0,94.09,42.206,94.09,94.09C254.797,177.835,212.59,220.043,160.707,220.043z M160.707,32.928
							c-51.291,0-93.023,41.732-93.023,93.028c0,51.296,41.732,93.027,93.023,93.027c51.297,0,93.029-41.731,93.029-93.027
							C253.736,74.659,212.004,32.928,160.707,32.928z"/>
					</g>
					<path style="fill:#FFFFFF;" d="M251.352,125.05c0,50.062-40.582,90.645-90.645,90.645c-50.059,0-90.641-40.583-90.641-90.645
						c0-50.058,40.582-90.643,90.641-90.643C210.77,34.407,251.352,74.992,251.352,125.05z"/>
					<g>
						<g>
							<rect x="159.713" y="39.293" style="fill:#DC071D;" width="1.996" height="13.256"/>
							<rect x="159.713" y="200.557" style="fill:#DC071D;" width="1.996" height="12.063"/>
							
								<rect x="152.051" y="42.633" transform="matrix(0.9945 -0.1049 0.1049 0.9945 -3.9876 16.2229)" width="0.462" height="6.8"/>
							<polygon points="168.555,202.524 169.004,202.476 169.723,209.236 169.264,209.28 							"/>
							<polygon points="143.014,44.071 143.457,43.978 144.879,50.627 144.432,50.725 							"/>
							<polygon points="176.531,201.285 176.988,201.191 178.41,207.844 177.957,207.938 							"/>
							<polygon points="134.52,46.361 134.961,46.223 137.068,52.689 136.631,52.831 							"/>
							<polygon points="184.354,199.224 184.793,199.082 186.895,205.55 186.459,205.696 							"/>
							<polygon points="126.316,49.527 126.738,49.34 129.518,55.552 129.094,55.739 							"/>
							<polygon points="191.908,196.36 192.328,196.174 195.104,202.382 194.68,202.568 							"/>
							<polygon points="111.129,58.33 111.502,58.055 115.512,63.559 115.129,63.828 							"/>
							
								<rect x="207.87" y="187.569" transform="matrix(0.81 -0.5864 0.5864 0.81 -72.4534 158.3235)" width="0.461" height="6.807"/>
							
								<rect x="106.526" y="62.828" transform="matrix(0.7465 -0.6654 0.6654 0.7465 -17.0072 87.8322)" width="0.46" height="6.813"/>
							<polygon points="212.203,183.309 212.553,182.996 217.117,188.053 216.77,188.358 							"/>
							<polygon points="98.102,70.082 98.408,69.734 103.482,74.285 103.178,74.629 							"/>
							
								<rect x="220.393" y="176.323" transform="matrix(0.6616 -0.7498 0.7498 0.6616 -60.113 226.2518)" width="0.463" height="6.814"/>
							
								<rect x="95.245" y="75.314" transform="matrix(0.5934 -0.8049 0.8049 0.5934 -24.5395 108.8665)" width="0.467" height="6.813"/>
							<polygon points="223.045,171.376 223.314,171.009 228.832,175.004 228.559,175.378 							"/>
							
								<rect x="90.653" y="82.367" transform="matrix(0.498 -0.8672 0.8672 0.498 -28.7569 121.875)" width="0.462" height="6.816"/>
							<polygon points="227.465,164.638 227.699,164.241 233.607,167.639 233.377,168.038 							"/>
							<polygon points="83.842,92.098 84.035,91.675 90.264,94.441 90.076,94.861 							"/>
							<polygon points="231.156,157.475 231.342,157.051 237.578,159.814 237.387,160.236 							"/>
							<polygon points="80.713,100.293 80.85,99.852 87.34,101.954 87.201,102.393 							"/>
							<polygon points="234.078,149.957 234.219,149.521 240.703,151.62 240.559,152.061 							"/>
							<polygon points="78.459,108.764 78.561,108.316 85.23,109.729 85.133,110.182 							"/>
							<polygon points="236.193,142.181 236.285,141.736 242.957,143.152 242.865,143.597 							"/>
							<polygon points="77.104,117.426 77.152,116.975 83.936,117.683 83.891,118.137 							"/>
							<polygon points="237.475,134.23 237.527,133.775 244.314,134.483 244.264,134.94 							"/>
							<polygon points="77.152,134.94 77.104,134.483 83.891,133.775 83.936,134.23 							"/>
							<polygon points="237.527,118.137 237.475,117.683 244.264,116.967 244.314,117.426 							"/>
							<polygon points="78.561,143.597 78.463,143.145 85.133,141.736 85.23,142.181 							"/>
							<polygon points="236.285,110.182 236.193,109.729 242.865,108.316 242.957,108.767 							"/>
							<polygon points="80.85,152.058 80.713,151.62 87.201,149.521 87.34,149.957 							"/>
							<polygon points="234.219,102.393 234.078,101.954 240.564,99.852 240.703,100.293 							"/>
							
								<rect x="83.646" y="158.412" transform="matrix(0.9095 -0.4158 0.4158 0.9095 -58.0813 50.5606)" width="6.816" height="0.464"/>
							<polygon points="231.342,94.861 231.156,94.441 237.391,91.675 237.574,92.098 							"/>
							<polygon points="92.854,175.378 92.58,175.004 98.102,171.009 98.373,171.376 							"/>
							<polygon points="223.314,80.906 223.045,80.531 228.559,76.533 228.832,76.912 							"/>
							
								<rect x="97.386" y="179.5" transform="matrix(0.7489 -0.6627 0.6627 0.7489 -93.7956 111.9245)" width="6.813" height="0.46"/>
							<polygon points="218.242,74.629 217.936,74.285 223.006,69.734 223.314,70.082 							"/>
							<polygon points="104.643,188.358 104.301,188.045 108.869,182.996 109.211,183.309 							"/>
							<polygon points="212.553,68.912 212.203,68.606 216.77,63.555 217.117,63.859 							"/>
							<polygon points="111.502,193.858 111.129,193.588 115.129,188.087 115.516,188.358 							"/>
							<polygon points="206.283,63.828 205.916,63.559 209.92,58.055 210.291,58.33 							"/>
							<polygon points="126.738,202.568 126.316,202.382 129.094,196.174 129.518,196.357 							"/>
							
								<rect x="190.103" y="52.309" transform="matrix(0.4077 -0.9131 0.9131 0.4077 66.6329 207.8071)" width="6.803" height="0.462"/>
							<polygon points="134.961,205.696 134.52,205.547 136.631,199.082 137.068,199.224 							"/>
							
								<rect x="182.226" y="49.297" transform="matrix(0.3076 -0.9515 0.9515 0.3076 81.3941 210.9129)" width="6.799" height="0.46"/>
							<polygon points="143.457,207.938 143.01,207.841 144.432,201.191 144.879,201.285 							"/>
							
								<rect x="174.071" y="47.118" transform="matrix(0.209 -0.9779 0.9779 0.209 94.0727 211.0047)" width="6.802" height="0.465"/>
							
								<rect x="148.883" y="205.649" transform="matrix(0.1057 -0.9944 0.9944 0.1057 -68.5444 335.5425)" width="6.798" height="0.463"/>
							<polygon points="169.004,49.437 168.555,49.388 169.264,42.625 169.723,42.676 							"/>
							<polygon style="fill:#DC071D;" points="205.07,200.505 198.35,189.018 196.627,190.02 203.336,201.482 							"/>
							<g>
								<polygon style="fill:#DC071D;" points="97.436,88.41 85.883,81.764 84.885,83.484 96.42,90.117 								"/>
								<polygon style="fill:#DC071D;" points="124.785,61.923 118.063,50.439 116.348,51.435 123.059,62.905 								"/>
								<g>
									<polygon style="fill:#DC071D;" points="223.906,88.426 235.457,81.781 236.451,83.498 224.916,90.135 									"/>
									<polygon style="fill:#DC071D;" points="196.547,61.941 203.27,50.457 204.99,51.453 198.283,62.919 									"/>
								</g>
							</g>
							<g>
								<polygon style="fill:#DC071D;" points="97.629,163.347 86.07,170 85.072,168.277 96.604,161.646 								"/>
								<polygon style="fill:#DC071D;" points="124.969,189.84 118.252,201.319 116.531,200.324 123.242,188.861 								"/>
								<g>
									<polygon style="fill:#DC071D;" points="224.088,163.336 235.643,169.981 236.641,168.261 225.109,161.628 									"/>
								</g>
							</g>
							<rect x="73.758" y="124.961" style="fill:#DC071D;" width="13.332" height="1.985"/>
							<rect x="235.559" y="124.963" style="fill:#DC071D;" width="12.101" height="1.981"/>
						</g>
						<g>
							<g>
								<path d="M152.721,55.6c0.43,0,0.811-0.091,1.154-0.257c0.344-0.17,0.514-0.493,0.514-0.971c0-0.146,0.074-0.219,0.223-0.219
									h0.445c0.148,0,0.221,0.074,0.221,0.219v15.146c0,0.145-0.072,0.217-0.221,0.217h-0.445c-0.148,0-0.223-0.072-0.223-0.217
									V56.377h-1.668c-0.152,0-0.229-0.073-0.229-0.225v-0.333C152.492,55.673,152.568,55.6,152.721,55.6z"/>
								<path d="M157.953,69.518c0.014-0.851,0.162-1.595,0.455-2.239c0.291-0.646,0.652-1.216,1.09-1.705
									c0.438-0.488,0.93-0.927,1.469-1.314c0.539-0.382,1.082-0.75,1.613-1.09c0.492-0.294,0.965-0.604,1.424-0.923
									c0.461-0.323,0.877-0.667,1.24-1.037c0.361-0.371,0.656-0.774,0.879-1.215c0.225-0.435,0.332-0.938,0.332-1.503v-0.333
									c0-0.443-0.104-0.861-0.311-1.257c-0.209-0.395-0.484-0.735-0.824-1.024c-0.342-0.291-0.734-0.521-1.184-0.691
									c-0.439-0.173-0.895-0.256-1.354-0.256c-0.699,0-1.357,0.181-1.982,0.545c-0.627,0.364-1.084,0.835-1.379,1.412
									c-0.059,0.153-0.156,0.181-0.291,0.091l-0.4-0.244c-0.102-0.058-0.129-0.155-0.068-0.29
									c0.166-0.368,0.393-0.705,0.684-1.004c0.283-0.294,0.617-0.548,0.988-0.752c0.365-0.208,0.764-0.368,1.176-0.482
									c0.418-0.112,0.84-0.167,1.273-0.167c0.58,0,1.143,0.111,1.691,0.323c0.549,0.215,1.035,0.51,1.457,0.881
									c0.424,0.371,0.766,0.808,1.027,1.311c0.258,0.507,0.389,1.042,0.389,1.604v0.333c0,0.7-0.121,1.308-0.357,1.825
									c-0.24,0.521-0.555,0.992-0.957,1.416c-0.404,0.42-0.857,0.813-1.371,1.156c-0.516,0.35-1.043,0.697-1.59,1.037
									c-0.492,0.313-0.977,0.627-1.457,0.947c-0.486,0.316-0.916,0.67-1.293,1.059c-0.381,0.385-0.697,0.814-0.945,1.287
									c-0.254,0.475-0.395,1.02-0.424,1.629h8.395c0.146,0,0.221,0.076,0.221,0.225v0.445c0,0.145-0.074,0.217-0.221,0.217h-9.176
									C158.025,69.734,157.953,69.662,157.953,69.518z"/>
							</g>
							<g>
								<path d="M190.682,64.631c0.432,0,0.813-0.088,1.158-0.262c0.342-0.17,0.508-0.492,0.508-0.964
									c0-0.149,0.076-0.226,0.227-0.226h0.447c0.146,0,0.219,0.076,0.219,0.226v15.138c0,0.15-0.072,0.226-0.219,0.226h-0.447
									c-0.15,0-0.227-0.075-0.227-0.226V65.408h-1.666c-0.15,0-0.225-0.073-0.225-0.223v-0.332
									C190.457,64.703,190.531,64.631,190.682,64.631z"/>
							</g>
							<g>
								<path d="M210.17,99.967c0.018-0.848,0.17-1.598,0.459-2.236c0.291-0.649,0.65-1.214,1.092-1.707
									c0.434-0.489,0.926-0.926,1.469-1.313c0.541-0.385,1.078-0.748,1.611-1.093c0.492-0.294,0.967-0.604,1.428-0.919
									c0.461-0.319,0.871-0.666,1.236-1.038c0.363-0.371,0.656-0.777,0.881-1.214c0.219-0.441,0.334-0.938,0.334-1.504v-0.332
									c0-0.445-0.107-0.869-0.314-1.26c-0.207-0.393-0.484-0.735-0.824-1.021c-0.344-0.292-0.732-0.52-1.18-0.694
									c-0.445-0.171-0.896-0.258-1.359-0.258c-0.695,0-1.359,0.186-1.98,0.549c-0.623,0.364-1.084,0.834-1.381,1.416
									c-0.059,0.146-0.156,0.174-0.291,0.087l-0.398-0.246c-0.105-0.06-0.129-0.156-0.066-0.289
									c0.16-0.37,0.393-0.706,0.678-1.002c0.291-0.294,0.619-0.548,0.99-0.757c0.369-0.209,0.764-0.368,1.182-0.479
									c0.414-0.111,0.84-0.17,1.268-0.17c0.582,0,1.145,0.11,1.691,0.326c0.551,0.211,1.035,0.507,1.461,0.877
									c0.42,0.371,0.764,0.813,1.025,1.313c0.26,0.507,0.387,1.041,0.387,1.607v0.332c0,0.699-0.121,1.305-0.354,1.826
									c-0.24,0.52-0.559,0.992-0.959,1.412c-0.4,0.427-0.857,0.809-1.367,1.159c-0.514,0.351-1.047,0.694-1.594,1.037
									c-0.492,0.31-0.979,0.626-1.459,0.944c-0.482,0.322-0.914,0.673-1.291,1.059c-0.379,0.389-0.693,0.816-0.943,1.291
									c-0.252,0.473-0.398,1.018-0.428,1.628h8.395c0.15,0,0.223,0.073,0.223,0.223v0.444c0,0.148-0.072,0.225-0.223,0.225h-9.172
									C210.246,100.191,210.17,100.115,210.17,99.967z"/>
							</g>
							<g>
								<path d="M226.623,123.634c-0.15,0-0.223-0.072-0.223-0.225v-0.444c0-0.146,0.072-0.219,0.223-0.219
									c0.506-0.018,1.027-0.07,1.563-0.156c0.529-0.094,1.012-0.243,1.445-0.461c0.432-0.213,0.781-0.507,1.057-0.879
									c0.273-0.371,0.412-0.861,0.412-1.468c0-0.417-0.086-0.802-0.256-1.159c-0.174-0.353-0.41-0.67-0.727-0.934
									c-0.311-0.271-0.68-0.475-1.1-0.625c-0.422-0.148-0.885-0.222-1.395-0.222c-0.826,0-1.535,0.181-2.113,0.546
									c-0.576,0.363-1.014,0.835-1.313,1.411c-0.063,0.149-0.156,0.181-0.291,0.091l-0.4-0.242
									c-0.104-0.064-0.127-0.156-0.064-0.293c0.16-0.367,0.391-0.707,0.688-1.002c0.297-0.295,0.633-0.549,1.014-0.754
									c0.379-0.209,0.783-0.372,1.205-0.482c0.422-0.111,0.848-0.167,1.275-0.167c0.551,0,1.09,0.087,1.615,0.255
									c0.529,0.176,0.99,0.422,1.393,0.745c0.402,0.331,0.727,0.732,0.969,1.205c0.246,0.475,0.371,1.017,0.371,1.627
									c0,0.521-0.088,0.972-0.256,1.357c-0.178,0.39-0.398,0.719-0.67,1.007c-0.279,0.277-0.588,0.511-0.938,0.687
									c-0.346,0.177-0.709,0.309-1.08,0.399c0.463,0.162,0.871,0.385,1.236,0.67c0.363,0.28,0.672,0.6,0.924,0.958
									c0.252,0.354,0.445,0.73,0.582,1.134c0.131,0.399,0.201,0.799,0.201,1.2c0,0.774-0.139,1.443-0.402,2.014
									c-0.271,0.576-0.621,1.048-1.059,1.431c-0.438,0.377-0.938,0.655-1.492,0.846c-0.557,0.188-1.129,0.274-1.705,0.274
									c-0.473,0-0.939-0.069-1.387-0.209c-0.457-0.142-0.867-0.336-1.24-0.59c-0.371-0.253-0.693-0.552-0.967-0.892
									c-0.277-0.344-0.467-0.718-0.566-1.134c-0.045-0.136,0.004-0.227,0.152-0.268l0.424-0.156
									c0.137-0.046,0.223,0.007,0.266,0.156c0.252,0.725,0.682,1.277,1.281,1.647c0.604,0.371,1.279,0.556,2.037,0.556
									c0.463,0,0.916-0.072,1.371-0.223c0.449-0.15,0.857-0.374,1.211-0.679c0.357-0.303,0.646-0.688,0.861-1.146
									c0.213-0.462,0.322-1.006,0.322-1.628c0-0.385-0.09-0.783-0.27-1.189c-0.178-0.406-0.445-0.788-0.813-1.131
									c-0.363-0.354-0.813-0.643-1.344-0.875c-0.537-0.228-1.158-0.351-1.873-0.365H226.623z"/>
							</g>
							<g>
								<path d="M217.762,163.127c-0.145,0-0.221-0.076-0.221-0.222v-3.115h-6.68c-0.146,0-0.225-0.073-0.225-0.224v-0.604
									c0-0.027,0.02-0.069,0.049-0.132l6.789-11.067c0.047-0.073,0.08-0.128,0.109-0.167c0.033-0.033,0.082-0.052,0.154-0.052
									h0.469c0.148,0,0.225,0.07,0.225,0.219v11.067h1.338c0.145,0,0.221,0.077,0.221,0.226v0.51c0,0.15-0.076,0.224-0.221,0.224
									h-1.338v3.115c0,0.146-0.076,0.222-0.225,0.222H217.762z M217.541,158.831v-9.487c-0.504,0.818-0.998,1.613-1.479,2.384
									c-0.486,0.77-0.965,1.543-1.436,2.317c-0.479,0.77-0.959,1.548-1.449,2.336c-0.492,0.788-0.996,1.604-1.518,2.45H217.541z"
									/>
							</g>
							<g>
								<path d="M188.066,178.023c0,0.149-0.072,0.219-0.223,0.219h-0.447c-0.146,0-0.223-0.069-0.223-0.219v-0.249l0.223-6.702
									c0-0.145,0.076-0.222,0.225-0.222h8.348c0.145,0,0.223,0.076,0.223,0.222v0.518c0,0.145-0.078,0.221-0.223,0.221h-7.703
									l-0.133,3.805c0.459-0.517,1.018-0.931,1.664-1.242c0.656-0.315,1.342-0.472,2.051-0.472c0.584,0,1.15,0.113,1.705,0.325
									c0.561,0.216,1.059,0.508,1.508,0.879c0.441,0.367,0.799,0.809,1.064,1.308c0.268,0.508,0.398,1.049,0.398,1.61v4.404
									c0,0.569-0.131,1.101-0.398,1.597c-0.266,0.497-0.617,0.931-1.045,1.301c-0.432,0.375-0.934,0.67-1.506,0.889
									c-0.57,0.226-1.15,0.337-1.746,0.337c-0.434,0-0.875-0.049-1.336-0.145c-0.459-0.097-0.898-0.247-1.313-0.444
									c-0.42-0.198-0.787-0.448-1.113-0.736c-0.328-0.288-0.58-0.635-0.76-1.037c-0.057-0.133-0.037-0.226,0.07-0.285l0.4-0.246
									c0.135-0.09,0.23-0.063,0.289,0.091c0.148,0.291,0.355,0.558,0.621,0.791c0.27,0.226,0.57,0.431,0.902,0.597
									c0.334,0.173,0.684,0.302,1.045,0.392c0.363,0.091,0.727,0.132,1.082,0.132c0.49,0,0.971-0.086,1.447-0.253
									c0.471-0.173,0.896-0.406,1.256-0.69c0.365-0.291,0.66-0.632,0.879-1.024c0.225-0.396,0.338-0.815,0.338-1.263v-4.404
									c0-0.447-0.113-0.867-0.338-1.259c-0.219-0.395-0.51-0.732-0.865-1.024c-0.357-0.288-0.76-0.518-1.213-0.69
									c-0.453-0.174-0.91-0.254-1.373-0.254c-0.445,0-0.881,0.072-1.311,0.233c-0.43,0.152-0.818,0.367-1.17,0.632
									c-0.352,0.27-0.643,0.579-0.881,0.937c-0.236,0.354-0.379,0.743-0.42,1.158V178.023z"/>
							</g>
							<g>
								<path d="M163.686,182.847c-0.287-0.607-0.742-1.068-1.383-1.37c-0.637-0.303-1.357-0.458-2.16-0.458
									c-0.473,0-0.938,0.09-1.391,0.26c-0.453,0.166-0.857,0.395-1.215,0.688c-0.354,0.287-0.643,0.631-0.857,1.026
									c-0.211,0.393-0.322,0.809-0.322,1.257v1.916c0.447-0.549,1.006-0.99,1.682-1.315c0.678-0.326,1.375-0.489,2.104-0.489
									c0.578,0,1.146,0.107,1.703,0.322c0.557,0.215,1.057,0.511,1.502,0.882c0.449,0.364,0.799,0.805,1.07,1.309
									c0.27,0.506,0.4,1.041,0.4,1.609v3.335c0,0.565-0.131,1.101-0.4,1.604c-0.271,0.507-0.621,0.94-1.07,1.316
									c-0.445,0.37-0.945,0.662-1.502,0.876c-0.557,0.217-1.125,0.323-1.703,0.323c-0.58,0-1.145-0.106-1.703-0.323
									c-0.557-0.214-1.055-0.506-1.5-0.876c-0.447-0.376-0.805-0.81-1.072-1.316c-0.264-0.503-0.396-1.038-0.396-1.604v-7.568
									c0-0.562,0.133-1.101,0.396-1.607c0.268-0.5,0.625-0.939,1.072-1.308c0.445-0.371,0.943-0.667,1.5-0.881
									c0.559-0.217,1.123-0.324,1.703-0.324c0.934,0,1.793,0.191,2.574,0.58c0.777,0.381,1.355,0.951,1.723,1.69
									c0.063,0.132,0.041,0.229-0.063,0.291l-0.406,0.243C163.838,183.023,163.742,182.996,163.686,182.847z M160.143,185.251
									c-0.459,0-0.916,0.084-1.367,0.253c-0.453,0.171-0.859,0.403-1.213,0.681c-0.357,0.282-0.645,0.611-0.869,0.99
									c-0.221,0.377-0.336,0.77-0.336,1.173v3.47c0,0.445,0.111,0.864,0.322,1.26c0.215,0.396,0.504,0.732,0.857,1.023
									c0.357,0.289,0.762,0.519,1.215,0.689c0.453,0.17,0.918,0.256,1.391,0.256c0.463,0,0.916-0.086,1.367-0.256
									c0.459-0.17,0.861-0.4,1.215-0.689c0.359-0.291,0.65-0.628,0.869-1.023c0.223-0.395,0.336-0.814,0.336-1.26v-3.335
									c0-0.451-0.113-0.868-0.336-1.263c-0.219-0.393-0.51-0.732-0.869-1.024c-0.354-0.288-0.756-0.521-1.215-0.691
									C161.059,185.335,160.605,185.251,160.143,185.251z"/>
							</g>
							<g>
								<path d="M129.322,186.213c0,0.149-0.072,0.226-0.223,0.226h-0.445c-0.148,0-0.223-0.076-0.223-0.226
									c0-1.169,0.084-2.398,0.256-3.682c0.168-1.288,0.451-2.559,0.846-3.821c0.393-1.257,0.914-2.479,1.559-3.661
									c0.645-1.181,1.451-2.26,2.418-3.239h-7.773c-0.148,0-0.221-0.075-0.221-0.221v-0.518c0-0.145,0.072-0.222,0.221-0.222
									h8.688c0.146,0,0.219,0.076,0.219,0.222v0.604c0,0.032-0.014,0.074-0.041,0.135c-1.01,1.042-1.85,2.118-2.516,3.239
									c-0.674,1.12-1.211,2.283-1.625,3.483c-0.42,1.205-0.713,2.447-0.883,3.731
									C129.404,183.547,129.322,184.867,129.322,186.213z"/>
							</g>
							<g>
								<path d="M103.998,151.103c0-0.521,0.086-1.006,0.275-1.469c0.184-0.456,0.453-0.86,0.799-1.2
									c0.351-0.344,0.779-0.617,1.293-0.815c0.51-0.197,1.096-0.299,1.746-0.299c0.656,0,1.236,0.102,1.75,0.299
									c0.512,0.198,0.941,0.472,1.289,0.815c0.352,0.34,0.621,0.744,0.803,1.2c0.188,0.463,0.277,0.948,0.277,1.469
									c0,0.746-0.178,1.412-0.531,2.006c-0.357,0.598-0.871,1.049-1.537,1.356c0.803,0.387,1.461,0.944,1.971,1.674
									c0.514,0.725,0.768,1.534,0.768,2.426c0,0.607-0.131,1.2-0.389,1.769c-0.264,0.577-0.607,1.077-1.035,1.523
									c-0.43,0.449-0.943,0.81-1.527,1.081c-0.584,0.277-1.199,0.412-1.838,0.412c-0.65,0-1.268-0.135-1.844-0.412
									c-0.582-0.271-1.09-0.632-1.516-1.081c-0.436-0.446-0.781-0.946-1.035-1.523c-0.26-0.568-0.393-1.161-0.393-1.769
									c0-0.892,0.258-1.701,0.768-2.426c0.514-0.729,1.174-1.287,1.971-1.674c-0.666-0.308-1.176-0.759-1.535-1.356
									C104.172,152.515,103.998,151.849,103.998,151.103z M104.217,158.564c0,0.492,0.1,0.968,0.311,1.433
									c0.209,0.469,0.488,0.886,0.848,1.25c0.352,0.359,0.771,0.656,1.246,0.878c0.475,0.226,0.977,0.333,1.49,0.333
									c0.52,0,1.016-0.107,1.492-0.333c0.479-0.222,0.891-0.519,1.246-0.878c0.357-0.364,0.643-0.781,0.85-1.25
									c0.205-0.465,0.313-0.94,0.313-1.433c0-0.493-0.107-0.955-0.313-1.401c-0.207-0.448-0.492-0.838-0.85-1.171
									c-0.355-0.334-0.768-0.601-1.246-0.801c-0.477-0.202-0.973-0.299-1.492-0.299c-0.549,0-1.059,0.097-1.533,0.299
									c-0.479,0.2-0.889,0.472-1.236,0.811c-0.348,0.34-0.621,0.736-0.822,1.18C104.314,157.627,104.217,158.089,104.217,158.564z
									 M104.887,151.103c0,0.392,0.07,0.757,0.213,1.103c0.137,0.351,0.342,0.66,0.609,0.927c0.268,0.268,0.602,0.476,1.004,0.632
									c0.395,0.156,0.869,0.239,1.398,0.239c0.533,0,1.004-0.083,1.402-0.239c0.402-0.156,0.738-0.364,1.002-0.632
									c0.271-0.267,0.473-0.576,0.613-0.927c0.143-0.347,0.213-0.712,0.213-1.103c0-0.398-0.07-0.774-0.213-1.121
									c-0.141-0.35-0.354-0.658-0.635-0.923c-0.283-0.271-0.623-0.476-1.023-0.625c-0.4-0.148-0.852-0.222-1.359-0.222
									c-0.514,0-0.975,0.073-1.367,0.222c-0.396,0.149-0.734,0.354-1.018,0.625c-0.277,0.265-0.49,0.572-0.627,0.923
									C104.957,150.328,104.887,150.704,104.887,151.103z"/>
							</g>
							<g>
								<path d="M90.402,128.355c0.281,0.609,0.742,1.061,1.379,1.367c0.639,0.306,1.359,0.458,2.16,0.458
									c0.461,0,0.918-0.087,1.367-0.257c0.453-0.171,0.861-0.402,1.217-0.69c0.355-0.288,0.643-0.628,0.865-1.024
									c0.223-0.392,0.334-0.811,0.334-1.259v-1.892c-0.459,0.533-1.025,0.964-1.701,1.29c-0.674,0.326-1.371,0.492-2.082,0.492
									c-0.576,0-1.148-0.109-1.705-0.321c-0.555-0.215-1.055-0.511-1.502-0.885c-0.445-0.369-0.803-0.806-1.068-1.312
									c-0.264-0.504-0.4-1.038-0.4-1.601v-3.343c0-0.561,0.137-1.1,0.4-1.603c0.266-0.503,0.623-0.944,1.068-1.315
									c0.447-0.367,0.947-0.66,1.502-0.875c0.557-0.219,1.129-0.326,1.705-0.326c0.58,0,1.145,0.107,1.703,0.326
									c0.557,0.215,1.061,0.508,1.5,0.875c0.449,0.371,0.805,0.813,1.076,1.315c0.264,0.503,0.394,1.042,0.394,1.603v7.57
									c0,0.565-0.131,1.099-0.394,1.607c-0.271,0.502-0.627,0.94-1.076,1.311c-0.439,0.371-0.943,0.667-1.5,0.878
									c-0.559,0.22-1.123,0.327-1.703,0.327c-0.934,0-1.793-0.195-2.57-0.58c-0.781-0.389-1.357-0.954-1.727-1.693
									c-0.064-0.136-0.039-0.23,0.066-0.292l0.402-0.242C90.242,128.178,90.342,128.204,90.402,128.355z M93.941,125.95
									c0.461,0,0.918-0.084,1.367-0.247c0.453-0.159,0.861-0.387,1.217-0.667c0.355-0.284,0.643-0.614,0.865-0.993
									c0.223-0.377,0.334-0.772,0.334-1.189v-3.475c0-0.443-0.111-0.863-0.334-1.26c-0.223-0.391-0.51-0.73-0.865-1.02
									c-0.355-0.291-0.764-0.521-1.217-0.695c-0.449-0.17-0.906-0.252-1.367-0.252c-0.475,0-0.938,0.082-1.393,0.252
									c-0.453,0.175-0.855,0.404-1.213,0.695c-0.359,0.289-0.643,0.629-0.859,1.02c-0.213,0.396-0.32,0.816-0.32,1.26v3.343
									c0,0.445,0.108,0.86,0.32,1.256c0.217,0.392,0.5,0.735,0.859,1.028c0.357,0.284,0.76,0.517,1.213,0.687
									C93.004,125.866,93.467,125.95,93.941,125.95z"/>
							</g>
							<g>
								<path d="M100.879,86.049c0.428,0,0.816-0.086,1.156-0.257c0.338-0.17,0.514-0.491,0.514-0.968
									c0-0.149,0.074-0.226,0.221-0.226h0.443c0.15,0,0.223,0.076,0.223,0.226v15.143c0,0.148-0.072,0.225-0.223,0.225h-0.443
									c-0.146,0-0.221-0.076-0.221-0.225v-13.14h-1.67c-0.15,0-0.223-0.073-0.223-0.218v-0.334
									C100.656,86.122,100.729,86.049,100.879,86.049z"/>
								<path d="M110.717,100.41c-0.979,0-1.775-0.182-2.391-0.544c-0.617-0.365-1.092-0.847-1.426-1.447
									c-0.338-0.601-0.559-1.292-0.68-2.072c-0.121-0.778-0.176-1.583-0.176-2.415v-3.068c0-0.836,0.055-1.641,0.176-2.419
									c0.121-0.782,0.342-1.472,0.68-2.071c0.334-0.601,0.809-1.083,1.426-1.448c0.615-0.364,1.412-0.544,2.391-0.544
									c0.982,0,1.781,0.18,2.396,0.544c0.615,0.365,1.092,0.847,1.426,1.448c0.33,0.6,0.557,1.289,0.68,2.071
									c0.117,0.778,0.176,1.583,0.176,2.419v3.068c0,0.832-0.059,1.637-0.176,2.415c-0.123,0.78-0.35,1.472-0.68,2.072
									c-0.334,0.601-0.811,1.082-1.426,1.447C112.498,100.229,111.699,100.41,110.717,100.41z M110.717,99.523
									c0.801,0,1.449-0.156,1.936-0.47c0.492-0.313,0.877-0.729,1.15-1.245c0.274-0.521,0.457-1.114,0.557-1.784
									c0.096-0.67,0.143-1.363,0.143-2.092v-3.068c0-0.732-0.047-1.43-0.143-2.098c-0.1-0.668-0.283-1.262-0.557-1.779
									c-0.273-0.521-0.658-0.938-1.15-1.249c-0.486-0.313-1.135-0.469-1.936-0.469c-0.801,0-1.447,0.156-1.936,0.469
									c-0.49,0.312-0.871,0.728-1.146,1.249c-0.274,0.518-0.457,1.111-0.557,1.779c-0.102,0.668-0.148,1.365-0.148,2.098v3.068
									c0,0.729,0.047,1.422,0.148,2.092c0.1,0.67,0.283,1.264,0.557,1.784c0.275,0.517,0.656,0.933,1.146,1.245
									C109.27,99.366,109.916,99.523,110.717,99.523z"/>
							</g>
							<g>
								<path d="M126.125,64.631c0.432,0,0.818-0.088,1.158-0.262c0.342-0.17,0.514-0.492,0.514-0.964
									c0-0.149,0.074-0.226,0.225-0.226h0.441c0.148,0,0.225,0.076,0.225,0.226v15.138c0,0.15-0.076,0.226-0.225,0.226h-0.441
									c-0.15,0-0.225-0.075-0.225-0.226V65.408h-1.672c-0.145,0-0.219-0.073-0.219-0.223v-0.332
									C125.906,64.703,125.98,64.631,126.125,64.631z"/>
								<path d="M131.244,64.631c0.434,0,0.82-0.088,1.16-0.262c0.342-0.17,0.514-0.492,0.514-0.964
									c0-0.149,0.076-0.226,0.225-0.226h0.441c0.148,0,0.229,0.076,0.229,0.226v15.138c0,0.15-0.08,0.226-0.229,0.226h-0.441
									c-0.148,0-0.225-0.075-0.225-0.226V65.408h-1.674c-0.143,0-0.217-0.073-0.217-0.223v-0.332
									C131.027,64.703,131.102,64.631,131.244,64.631z"/>
							</g>
						</g>
					</g>
				</g>
				<g>
					<path style="opacity:0.6;fill:#C93823;" d="M165.113,125.956c0,2.433-1.973,4.404-4.406,4.404c-2.43,0-4.402-1.972-4.402-4.404
						c0-2.437,1.973-4.403,4.402-4.403C163.141,121.553,165.113,123.519,165.113,125.956z"/>
					<g>
						<g>
							<polygon style="fill:#E73B2A;" points="160.707,74.629 155.672,83.201 159.047,128.681 159.711,128.681 161.713,128.681 
								162.375,128.681 165.752,83.201 							"/>
							<path style="fill:#7E0C1A;" d="M162.375,129.208h-3.328c-0.279,0-0.512-0.212-0.527-0.49l-3.381-45.479
								c-0.008-0.107,0.018-0.215,0.072-0.305l5.041-8.576c0.193-0.322,0.725-0.322,0.914,0l5.039,8.576
								c0.055,0.09,0.08,0.197,0.072,0.305l-3.375,45.479C162.881,128.996,162.652,129.208,162.375,129.208z M159.533,128.149h2.35
								l3.324-44.824l-4.5-7.651l-4.498,7.651L159.533,128.149z"/>
						</g>
						<g>
							<polygon style="fill:#006FB9;" points="130.129,143.89 141.234,145.977 163.053,125.803 162.709,125.237 161.672,123.526 
								161.326,122.961 133.381,133.063 							"/>
							<path style="fill:#22357A;" d="M133.129,132.602c0.023-0.014,0.047-0.025,0.072-0.03l27.943-10.113
								c0.236-0.084,0.502,0.008,0.635,0.221l1.729,2.847c0.133,0.222,0.098,0.495-0.09,0.667l-21.826,20.171
								c-0.125,0.113-0.291,0.166-0.455,0.13l-11.107-2.081c-0.146-0.032-0.277-0.118-0.355-0.246
								c-0.084-0.129-0.1-0.285-0.055-0.428l3.252-10.824C132.916,132.779,133.006,132.668,133.129,132.602z M161.096,123.604
								l-27.283,9.873l-3.006,10.002l10.264,1.926l21.311-19.694L161.096,123.604z"/>
						</g>
					</g>
					<g>
						<path style="fill:#3B93BE;" d="M165.113,125.956c0,2.433-1.973,4.404-4.406,4.404c-2.43,0-4.402-1.972-4.402-4.404
							c0-2.437,1.973-4.403,4.402-4.403C163.141,121.553,165.113,123.519,165.113,125.956z"/>
						<path style="fill:#152F62;" d="M160.707,130.892c-2.719,0-4.934-2.211-4.934-4.936c0-2.721,2.215-4.934,4.934-4.934
							c2.723,0,4.938,2.214,4.938,4.934C165.645,128.681,163.43,130.892,160.707,130.892z M160.707,122.079
							c-2.133,0-3.871,1.739-3.871,3.877c0,2.138,1.738,3.876,3.871,3.876c2.141,0,3.875-1.738,3.875-3.876
							C164.582,123.818,162.848,122.079,160.707,122.079z"/>
					</g>
				</g>
				<path style="opacity:0.8;fill:#FFFFFF;" d="M160.648,20.774c0,0-80.223-1.461-101.391,80.879
					C59.258,101.653,77.104,28.152,160.648,20.774z"/>
				<path style="opacity:0.8;fill:#FFFFFF;" d="M265.434,132.445c0,0-2.904,80.191-86.273,96.853
					C179.16,229.299,253.523,215.47,265.434,132.445z"/>
			</g>
		</g>
		<g>
			<path style="fill:#E9BE95;" d="M20.414,109.992c0,0-4.426,6.242-2.514,11.199c1.916,4.956,14.101,2.561,28.484-7.253
				c0,0,1.746,1.735,4.607-0.06c2.857-1.795,3.469-2.215,3.469-2.215s6.164-0.895,7.061-1.672c0.896-0.777,0.297-2.575-6.113-0.723
				c0,0,2.883-2.449,5.695-4.425c2.813-1.975,1.635-3.251-0.539-2.574c-2.172,0.68-6.225,4.011-6.225,4.011s2.127-3.053,4.193-5.68
				c2.414-3.083,0.098-2.927-1.266-2.068c-1.859,1.166-5.381,5.291-5.559,5.534c-0.178,0.236,1.965-3.678,3.223-5.534
				c1.258-1.854,0.547-3.648-0.83-2.645c-1.377,0.996-6.223,8.544-6.223,8.544s1.076-2.398,1.266-3.831
				c0.27-2.002-1.383-1.379-2.641,0c-1.258,1.373-2.184,5.621-1.768,7.357c0,0-11.393,6.58-16.541,7.537
				c0,0-3.172,0.539-1.318-2.752L20.414,109.992z"/>
			<path style="fill:#E9BE95;" d="M26.31,114.236c0.047-0.379,0.213-0.863,0.566-1.492l-6.463-2.752c0,0-0.523,0.746-1.133,1.912
				C21.607,112.762,23.896,113.731,26.31,114.236z"/>
			<g>
				<path style="fill:#B5221B;" d="M40.998,89.381c0,0-2.26-1.371-7.031-0.014c-6.463,1.83-11.994,11.084-16.066,20.056
					l14.303,6.112C32.203,115.535,43.479,95.889,40.998,89.381z"/>
			</g>
			<g style="opacity:0.4;">
				<path style="fill:#AD6183;" d="M40.998,89.381c0,0-2.043-1.193-6.289-0.188c1.537,0.497,2.586,1.784,2.246,4.237
					c-0.521,3.772-9.662,16.196-10.996,19.421l6.244,2.684C32.203,115.535,43.479,95.889,40.998,89.381z"/>
			</g>
		</g>
		<g>
			<path style="fill:#252524;" d="M90.063,59.73c0.24-0.357,2.152-18.192,2.633-19.385l3.949-2.395c0,0,0.48-24.751-25.611-31.341
				C44.947,0.014,32.26,9.706,28.314,13.896c0,0-20.822,2.992-23.457,30.637c-2.631,27.642,20.352,41.512,41.172,42.7L90.063,59.73z
				"/>
			<g>
				<path style="fill:none;" d="M71.453,6.726c-0.57-0.173-1.152-0.323-1.754-0.447c-0.178-0.032-0.33-0.069-0.504-0.107
					c0.609,0.138,1.217,0.277,1.838,0.438C71.182,6.643,71.314,6.688,71.453,6.726z"/>
				<path style="fill:#6B190E;" d="M68.109,5.931c0.346,0.084,0.715,0.16,1.086,0.24C68.834,6.087,68.469,6.004,68.109,5.931z"/>
				<path style="fill:#121211;" d="M71.453,6.726c15.754,4.752,17.381,22.916,17.381,22.916
					c-1.168-9.421-12.891-12.368-12.891-12.368c13.016,8.793,1.574,26.931,1.574,26.931l-8.01,0.687
					c1.076-4.217,4.936-17.502,4.936-17.502c-8.433,5.654-12.625,19.164-12.625,19.164l-4.41,0.76
					c-0.02-6.386,4.41-14.628,4.41-14.628c-8.402,3.141-12.203,16.426-12.203,16.426l-6.582,1.675
					c-0.541-6.396,3.113-14.751,3.113-14.751c-6.945,2.813-10.412,15.623-10.412,15.623h-3.293
					c-0.809-3.557,3.293-13.229,3.293-13.229c-8.738,6.552-9.543,20.111-9.543,20.111c-4.549-2.433-8.258,2.277-8.258,2.277
					c-4.65,4.736-0.033,13.937-0.033,13.937c-3.664-1.523-6.879-5.387-9.357-9.288c7.103,13.796,22.822,20.931,37.486,21.767
					L90.063,59.73c0.24-0.357,2.152-18.192,2.633-19.385l3.949-2.395C96.645,37.949,97.105,13.48,71.453,6.726z"/>
			</g>
			<path style="fill:#D8A87A;" d="M88.627,54.227c0,0,1.438-4.071,6.344-3.353c4.904,0.719,5.834,10.05-3.172,11.848L88.627,54.227z
				"/>
			<path style="fill:#E9BE95;" d="M89.584,40.344c0,0-0.838,7.992,1.193,12.313c2.037,4.321,3.713,20.597-12.084,29.451
				c-15.795,8.856-38.055,9.933-49.666-6.823c0,0-6.697,3.353-9.689-4.546c-2.99-7.899,6.342-12.449,10.531-3.949
				c0,0-1.316-19.987,5.865-28.361c0,0-2.391,5.865-1.918,11.248l8.023-1.194c0,0,1.67-8.617,4.307-12.447
				c0,0-2.277,7.301-2.277,11.73l12.686-1.32c0,0,1.918-9.575,5.264-13.76c0,0-3.23,9.571-3.23,12.924l10.053-1.916
				c0,0,2.873-8.617,4.432-11.008l-2.275,10.411l12.082-2.633c0,0,3.59-6.462,3.951-11.13C86.83,29.332,89.713,34.725,89.584,40.344
				z"/>
			<path style="fill:#D8A87A;" d="M25.033,66.015c-1.209-0.868-3.769-0.333-3.686,1.472c0.006,0.03,0.041,0.008,0.049-0.006
				c0.889-2.226,3.24-0.796,4.045,0.519c0.129,0.208,0.205,0.406,0.301,0.614c-0.088,0.479-0.203,0.896-0.543,1.333
				c-0.488,0.627-1.539,1.138-2.309,0.752c-0.035-0.016-0.078,0.042-0.051,0.073c0.734,0.858,1.85,0.489,2.592-0.128
				c0.285-0.24,0.535-0.629,0.682-1.049c0.25,0.91,0.287,1.836,0.178,2.898c-0.018,0.16,0.174,0.07,0.211-0.014
				C27.342,70.582,26.771,67.268,25.033,66.015z"/>
			<path style="fill:#D8A87A;" d="M94.152,54.354c-1.08,1.451-1.195,3.745-0.572,5.386c0.053,0.129,0.236-0.027,0.242-0.111
				c0.027-0.412,0.064-1.01,0.135-1.672c0.143,0.055,0.297,0.098,0.467,0.109c0.578,0.053,1.199-0.336,1.561-0.752
				c0.039-0.049,0.02-0.135-0.053-0.1c-0.373,0.166-0.855,0.203-1.254,0.158c-0.25-0.027-0.42-0.163-0.607-0.266
				c0.301-1.91,0.998-3.905,2.789-3.43c0.037,0.015,0.078-0.034,0.055-0.068C96.078,52.483,94.771,53.522,94.152,54.354z"/>
			<g>
				<path style="fill:#351301;" d="M56.629,62.246c0.113,2.249-0.596,4.102-1.58,4.15c-0.981,0.045-1.867-1.732-1.979-3.978
					c-0.109-2.241,0.6-4.098,1.582-4.146C55.635,58.225,56.521,60,56.629,62.246z"/>
				<path style="fill:#FFFFFF;" d="M54.51,60.647c-0.021,0.68-0.279,1.222-0.578,1.211c-0.301-0.01-0.521-0.568-0.498-1.249
					c0.021-0.681,0.279-1.226,0.58-1.216C54.311,59.403,54.535,59.966,54.51,60.647z"/>
			</g>
			<g>
				<path style="fill:#351301;" d="M85.883,57.127c0.109,2.249-0.598,4.102-1.58,4.151c-0.984,0.044-1.871-1.732-1.98-3.978
					c-0.111-2.242,0.601-4.099,1.582-4.147C84.889,53.105,85.771,54.882,85.883,57.127z"/>
				<path style="fill:#FFFFFF;" d="M83.762,55.526c-0.023,0.681-0.281,1.226-0.578,1.212c-0.305-0.008-0.521-0.566-0.496-1.25
					c0.018-0.68,0.279-1.225,0.578-1.215C83.563,54.285,83.787,54.843,83.762,55.526z"/>
			</g>
			<path style="fill:#E7634D;" d="M73.367,76.215c0,0-10.809,2.869-19.541,0c0,0,0.336,5.563,6.527,7.27
				C66.549,85.189,71.305,81.511,73.367,76.215z"/>
			<path style="fill:#F19F9E;" d="M54.088,77.539c0.51,1.758,1.994,4.766,6.266,5.945c2.285,0.629,4.377,0.518,6.209-0.127
				C63.766,79.547,58.986,77.537,54.088,77.539z"/>
			<path style="fill:#D8A87A;" d="M72.07,65.592c-0.691,0.083-1.414,0.398-1.99,0.773c-0.607,0.393-0.902,0.996-1.391,1.489
				c-0.014,0.017,0,0.046,0.02,0.027c0.607-0.478,1.021-1.021,1.754-1.367c1.197-0.565,2.568-0.306,3.193,0.885
				c0.719,1.361-0.779,2.433-1.797,2.96c-0.955,0.504-1.91,0.345-2.92,0.131c-0.137-0.029-0.311,0.236-0.152,0.311
				c2.123,0.924,5.586-0.61,5.789-3.096C74.691,66.338,73.258,65.45,72.07,65.592z"/>
			<path style="fill:#161615;" d="M46.973,54.063c-0.016,0.048,0.063,0.038,0.08,0.017c1.545-1.551,3.424-2.828,5.701-2.36
				c2.445,0.514,4.215,2.797,4.535,5.186c0.02,0.135,0.25,0.079,0.268-0.032C58.777,50.155,49.006,47.559,46.973,54.063z"/>
			<path style="fill:#161615;" d="M76.928,47.413c-0.922,0.985-1.715,2.277-1.916,3.641c-0.106,0.691-0.377,2.273,0.193,2.852
				c0.053,0.057,0.123-0.026,0.127-0.083c0.025-1.821,0.961-4.087,2.26-5.347c0.773-0.753,2.996-1.264,4.053-0.878
				c0.711,0.256,1.617,0.909,2.279,1.287c0.195,0.111,0.342-0.239,0.252-0.378C82.574,46.105,79.096,45.098,76.928,47.413z"/>
			<path style="fill:#F5BEB2;" d="M54.453,69.451c0.141,1.221-2.129,2.477-5.063,2.811c-2.938,0.333-5.428-0.381-5.568-1.607
				c-0.141-1.217,2.125-2.48,5.064-2.811C51.818,67.51,54.318,68.233,54.453,69.451z"/>
			<path style="fill:#F5BEB2;" d="M86.469,64.381c0.152,1.218-2.101,2.494-5.031,2.852c-2.936,0.357-5.436-0.328-5.584-1.555
				c-0.148-1.222,2.105-2.502,5.039-2.855C83.826,62.458,86.326,63.162,86.469,64.381z"/>
			<path style="fill:#223449;" d="M81.924,40.232c-7.471,0-13.551,6.082-13.551,13.553c0,0.264,0.025,0.517,0.041,0.781
				c-0.721-0.407-1.588-0.473-2.645-0.191c-0.689,0.18-1.182,0.641-1.539,1.169c-1.65-5.625-6.85-9.747-13-9.747
				c-7.473,0-13.553,6.079-13.553,13.551c0,0.424,0.025,0.84,0.063,1.25l-14.803,0.59c-1.631,0.329-4.803,1.881-5.123,5.432
				c-0.035,0.391,0.254,0.738,0.652,0.777c0.019,0,0.043,0.003,0.064,0.003c0.367,0,0.68-0.281,0.713-0.653
				c0.307-3.354,3.826-4.118,3.861-4.137l14.842-0.582c1.244,6.194,6.727,10.877,13.283,10.877c7.473,0,13.551-6.08,13.551-13.557
				c0-0.326-0.025-0.642-0.047-0.965c0.027-0.059,0.055-0.125,0.063-0.193c0.074-0.549,0.477-2.156,1.348-2.385
				c1.094-0.291,1.994-0.323,2.787,1.982c0.025,0.076,0.07,0.142,0.117,0.201c1.774,5.42,6.873,9.348,12.875,9.348
				c7.473,0,13.553-6.078,13.553-13.55C95.477,46.314,89.396,40.232,81.924,40.232z M51.23,71.467
				c-6.682,0-12.117-5.438-12.117-12.119c0-6.681,5.436-12.115,12.117-12.115c6.68,0,12.117,5.434,12.117,12.115
				C63.348,66.029,57.91,71.467,51.23,71.467z M81.924,65.9c-6.682,0-12.113-5.436-12.113-12.115
				c0-6.682,5.432-12.116,12.113-12.116c5.324,0,9.846,3.453,11.467,8.232l-2.645,0.604c-0.373,0.086-0.607,0.458-0.521,0.83
				c0.076,0.322,0.357,0.537,0.678,0.537c0.047,0,0.098-0.007,0.15-0.017l2.713-0.618c0.176,0.823,0.275,1.669,0.275,2.548
				C94.041,60.465,88.605,65.9,81.924,65.9z"/>
			<path style="fill:#FFFFFF;" d="M61.156,79.932c2.879,0.184,8.371,0.086,9.721-3.193c-3.703,0.67-10.887,1.503-17.051-0.523
				c0,0,0.047,0.725,0.393,1.728C56.26,79.213,58.809,79.781,61.156,79.932z"/>
		</g>
	</g>
	<g>
		<path style="fill:#353233;" d="M316.982,44.02c-11.01-27.91-23.18-28.019-23.185-28.019c-1.174-0.012-2.762-2.083-3.57-2.757
			c-1.576-1.316-3.406-2.161-5.314-2.898c-4.301-1.664-8.969-2.235-13.565-2.235c-3.65-0.002-7.313,0.322-10.91,0.933
			c-2.754,0.468-5.514,1.281-8.068,2.416c-5.721,2.538-10.555,6.314-13.885,11.671c-2.09,3.367-3.906,7.137-5.244,10.87
			c-2.055,5.75-3.529,11.692-5.664,17.412c-1.332,3.571-2.928,7.048-4.867,10.327c-1.953,3.302-4.424,6.634-7.904,8.476
			c0.607,0.62,5.268,2.247,6.068,2.764c0.832-1.182,2.314-2.364,2.928-3.697c0.18-0.386-1.271,2.71-1.732,4.266
			c1.582,0.773,4.293,2.067,6.033,2.654c0.529-1.072,1.063-2.146,1.65-3.189c0.197-0.348-0.156,1.934-0.422,3.534
			c1.752,0.552,4.438,1.442,5.848,1.95c3.83,1.376,7.721,2.588,11.57,3.906c4.912,1.683,22.943,5.973,49.707,3.393
			c0.314-0.06,1.916-0.455,2.236-0.521c1.871-1.52,2-2.531,3.123-5.066c0.143-0.326,0.014,3.145-0.707,4.479
			c3.033-0.859,6.199-2.008,9.309-3.402c1.172-2.561,1.693-5.305,1.537-8.271c-0.027-0.489,0.832,4.884,1,7.131
			c4.713-2.46,10.217-6.093,13.461-9.394C322.289,56.721,320.17,52.096,316.982,44.02z"/>
		<path style="opacity:0.5;fill:#353233;" d="M214.805,70.215c3.48-1.842,5.951-5.174,7.904-8.476
			c1.939-3.278,3.535-6.755,4.867-10.327c2.135-5.72,3.609-11.662,5.664-17.412c1.338-3.733,3.154-7.503,5.244-10.87
			c1.654-2.658,3.678-4.926,5.996-6.848c-0.164,0.291-0.326,0.586-0.469,0.891c-1.195,2.545-1.992,6.058-0.449,8.63
			c1.615,2.697,5.963,1.146,8.178,0.438c5.234-1.673,10.494-2.244,15.928-1.339c2.641,0.44,5.258,1.03,7.684,2.189
			c1.781,0.851,3.527,1.752,5.502,2.051c3.02,0.454,6.09-1.633,8.166-3.592c0.553-0.522,1.086-1.071,1.602-1.637
			c-1.598,3.836-4.4,11.991-4.516,16.08c-0.236,8.666,5.223,22.171,5.418,21.916c0.424-0.546,3.188-1.624,3.695-1.968
			c7.766-2.419,9.529,11.472,8.615,18.098c-0.053,0.388,9.975-5.664,4.166-29.054c6.793,9.478,7.996,20.275,8.225,20.161
			c2.26-1.113,5.582-3.147,6.018-5.918c0.301-1.914,0.201-3.908-0.102-5.879c1.227,3.477,2.58,7.646,4.273,13.4
			c-3.244,3.301-8.748,6.934-13.461,9.394c-0.168-2.247-1.027-7.62-1-7.131c0.156,2.966-0.365,5.71-1.537,8.271
			c-3.109,1.394-6.275,2.543-9.309,3.402c0.721-1.334,0.85-4.805,0.707-4.479c-1.123,2.535-1.252,3.547-3.123,5.066
			c-0.32,0.066-1.922,0.462-2.236,0.521c-26.764,2.58-44.795-1.71-49.707-3.393c-3.85-1.318-7.74-2.53-11.57-3.906
			c-1.41-0.508-4.096-1.398-5.848-1.95c0.266-1.601,0.619-3.882,0.422-3.534c-0.588,1.044-1.121,2.117-1.65,3.189
			c-1.74-0.587-4.451-1.881-6.033-2.654c0.402-1.358,1.561-3.893,1.73-4.254c-0.619,1.328-2.096,2.505-2.926,3.686
			C220.072,72.462,215.412,70.835,214.805,70.215z"/>
		<g>
			<path style="fill:none;" d="M254.861,10.439c0.527-0.137,1.064-0.253,1.617-0.339c0.162-0.024,0.305-0.055,0.461-0.081
				c-0.563,0.103-1.115,0.21-1.691,0.327C255.119,10.375,254.994,10.412,254.861,10.439z"/>
			<path style="fill:#802510;" d="M257.939,9.84c-0.314,0.064-0.658,0.122-1,0.179C257.275,9.959,257.609,9.9,257.939,9.84z"/>
		</g>
		<path style="fill:#E1B78C;" d="M274.232,84.246l-0.246,6.67c0,0-0.059,2.471-3.4,2.476s-4.893-2.205-4.975-3.448
			c-0.082-1.24,0.234-5.74,0.234-5.74L274.232,84.246z"/>
		<path style="fill:#EFCAA6;" d="M265.688,86.826c0.068-1.367,0.158-2.623,0.158-2.623l8.387,0.043l-0.121,3.26
			C271.172,87.946,268.383,87.738,265.688,86.826z"/>
		<path style="fill:#E1B78C;" d="M237.393,53.04c0,0-1.154-3.761-5.648-3.298c-4.492,0.467-5.699,8.932,2.434,10.913L237.393,53.04z
			"/>
		<path style="fill:#EFCAA6;" d="M235.49,51.529c-2.291,3.698-4.17,18.614,9.877,27.286c14.045,8.674,34.275,10.512,45.492-4.301
			c0,0,5.975,3.309,9.004-3.767c3.027-7.08-5.299-11.579-9.44-4.003c0,0-4.449-7.166-7.322-14.652
			c-1.475-3.846-2.264-8.262-2.537-10.835c0,0-4.658-6.889-10.256-7.555c-8.115-0.966-24.348,1.23-29.318-2.266
			C240.99,31.436,240.592,43.296,235.49,51.529z"/>
		<path style="fill:#E1B78C;" d="M294.859,66.227c1.133-0.744,3.445-0.162,3.297,1.482c-0.002,0.027-0.037,0.003-0.039-0.011
			c-0.727-2.06-2.924-0.849-3.707,0.318c-0.125,0.183-0.203,0.365-0.299,0.547c0.061,0.44,0.15,0.823,0.445,1.236
			c0.418,0.59,1.355,1.095,2.072,0.774c0.033-0.015,0.07,0.04,0.047,0.066c-0.701,0.758-1.705,0.379-2.359-0.217
			c-0.248-0.226-0.465-0.592-0.582-0.979c-0.256,0.819-0.328,1.661-0.272,2.636c0.01,0.143-0.158,0.057-0.191-0.023
			C292.578,70.296,293.223,67.297,294.859,66.227z"/>
		<path style="fill:#E1B78C;" d="M232.354,52.941c0.93,1.365,0.943,3.456,0.314,4.926c-0.051,0.118-0.211-0.029-0.213-0.106
			c-0.012-0.374-0.021-0.925-0.063-1.527c-0.131,0.045-0.273,0.074-0.43,0.082c-0.525,0.025-1.074-0.352-1.387-0.749
			c-0.037-0.041-0.02-0.123,0.049-0.087c0.332,0.168,0.771,0.221,1.135,0.196c0.229-0.016,0.389-0.135,0.564-0.225
			c-0.201-1.748-0.754-3.593-2.408-3.227c-0.035,0.009-0.07-0.036-0.047-0.065C230.674,51.167,231.822,52.159,232.354,52.941z"/>
		<g>
			<path style="fill:#461A00;" d="M267.16,55.676c-0.189,2.042,0.387,3.755,1.279,3.837c0.893,0.083,1.766-1.503,1.953-3.543
				c0.188-2.04-0.387-3.758-1.279-3.839C268.221,52.05,267.344,53.634,267.16,55.676z"/>
			<path style="fill:#FFFFFF;" d="M269.15,54.299c-0.006,0.621,0.209,1.122,0.479,1.124c0.277,0.002,0.5-0.494,0.504-1.119
				c0.008-0.62-0.205-1.124-0.48-1.126C269.381,53.176,269.154,53.676,269.15,54.299z"/>
		</g>
		<g>
			<path style="fill:#461A00;" d="M243.037,51.025c-0.191,2.044,0.387,3.758,1.277,3.84c0.895,0.082,1.768-1.506,1.957-3.545
				c0.184-2.039-0.387-3.758-1.279-3.838C244.098,47.4,243.221,48.985,243.037,51.025z"/>
			<path style="fill:#FFFFFF;" d="M245.025,49.649c-0.002,0.62,0.211,1.126,0.482,1.126c0.273,0.004,0.496-0.496,0.5-1.121
				c0.01-0.618-0.207-1.121-0.48-1.123C245.258,48.525,245.031,49.027,245.025,49.649z"/>
		</g>
		<path style="fill:#EF795F;" d="M245.594,71.189c0,0,12.422,3.867,22.703,0.961c0,0-0.664,6.448-7.943,8.123
			C253.078,81.951,247.734,77.445,245.594,71.189z"/>
		<path style="fill:#F6B1AF;" d="M267.924,73.678c-0.678,2.015-2.549,5.439-7.57,6.596c-2.685,0.619-5.103,0.391-7.201-0.451
			C256.588,75.531,262.238,73.435,267.924,73.678z"/>
		<path style="fill:#E1B78C;" d="M252.035,61.432c0.625,0.102,1.27,0.416,1.781,0.779c0.541,0.381,0.785,0.942,1.211,1.412
			c0.012,0.014-0.002,0.037-0.018,0.022c-0.539-0.459-0.891-0.969-1.545-1.314c-1.068-0.559-2.326-0.376-2.945,0.685
			c-0.705,1.214,0.619,2.246,1.521,2.767c0.854,0.493,1.729,0.386,2.658,0.231c0.125-0.021,0.27,0.227,0.125,0.283
			c-1.971,0.764-5.063-0.77-5.152-3.038C249.617,62.01,250.957,61.256,252.035,61.432z"/>
		<path d="M275.959,51.975c-0.006,0.047-0.066,0.007-0.072-0.02c-0.629-1.894-1.643-3.7-3.691-4.241
			c-2.205-0.582-4.576,0.565-5.811,2.382c-0.068,0.105-0.234-0.035-0.205-0.132C267.916,43.984,276.947,45.841,275.959,51.975z"/>
		<path d="M248.066,42.132c1.014,0.691,1.979,1.682,2.43,2.847c0.232,0.598,0.793,1.95,0.4,2.58
			c-0.037,0.059-0.115-0.001-0.127-0.046c-0.391-1.615-1.676-3.441-3.084-4.306c-0.84-0.514-2.918-0.522-3.779,0.03
			c-0.578,0.371-1.256,1.134-1.77,1.604c-0.152,0.139-0.354-0.144-0.297-0.288C242.777,42.099,245.672,40.504,248.066,42.132z"/>
		<path style="fill:#F9CBC0;" d="M266.334,66.622c-0.174,1.108,1.844,2.339,4.502,2.754c2.662,0.419,4.959-0.136,5.131-1.247
			c0.174-1.105-1.84-2.346-4.502-2.754C268.807,64.955,266.504,65.519,266.334,66.622z"/>
		<path style="fill:#F9CBC0;" d="M235.248,62.52c-0.186,1.103,1.82,2.353,4.479,2.79c2.656,0.445,4.961-0.091,5.141-1.198
			c0.184-1.107-1.818-2.361-4.479-2.797C237.732,60.871,235.428,61.414,235.248,62.52z"/>
		<path style="fill:#030000;" d="M281.258,40.049l12.254-21.919C293.512,18.129,286.779,33.835,281.258,40.049z"/>
		<g>
			<g>
				<g>
					<g>
						<path style="fill:#B11116;" d="M244.904,31.565c0,0,0.416-8.458,0.656-9.666c0.238-1.208-0.424-1.474-0.424-1.474
							s-0.18-0.121-0.285-0.195c0,0-0.52-0.632-1.59,0.298c-1.064,0.926-4.295,11.701-4.295,11.701s0.102,2.27,2.109,2.276
							c0.305,0.002,0.561-0.018,0.781-0.047c0.133-0.004,0.297-0.041,0.488-0.094c0.193-0.053,0.354-0.102,0.471-0.164
							c0.211-0.086,0.447-0.199,0.719-0.339C245.326,32.943,244.904,31.565,244.904,31.565z M242.691,31.747
							c-0.178,0.068-0.326,0.117-0.457,0.155c-0.078,0.026-0.174,0.052-0.295,0.066c-0.125,0.014-0.227,0.014-0.307,0.005
							c-0.137-0.009-0.297-0.026-0.48-0.06c-1.207-0.227-1.104-1.741-1.104-1.741s2.324-7.372,2.975-8.09
							c0.652-0.719,0.973-0.361,0.973-0.361c0.068,0.036,0.178,0.098,0.178,0.098s0.422,0.089,0.264,0.962
							c-0.156,0.875-0.779,7.366-0.779,7.366S243.842,31.293,242.691,31.747z"/>
					</g>
					<g>
						<path style="fill:#ED1C24;" d="M244.91,31.368c0,0,0.557-8.502,0.82-9.715c0.141-0.653-0.023-1.34-0.613-1.705
							c-0.613-0.378-1.15-0.159-1.68,0.28c-1.098,0.919-4.525,11.718-4.525,11.718s0.076,2.287,2.098,2.323
							c0.307,0.003,0.566-0.011,0.791-0.036c0.133-0.007,0.299-0.037,0.494-0.089c0.199-0.05,0.354-0.102,0.477-0.159
							c0.211-0.083,0.451-0.193,0.729-0.331C245.32,32.758,244.91,31.368,244.91,31.368z M242.68,31.517
							c-0.178,0.066-0.334,0.118-0.467,0.151c-0.078,0.028-0.178,0.045-0.301,0.059c-0.123,0.014-0.225,0.014-0.307,0.002
							c-0.135-0.007-0.293-0.028-0.479-0.065c-1.223-0.251-1.094-1.77-1.094-1.77s2.465-7.386,3.133-8.1
							c0.67-0.714,0.99-0.351,0.99-0.351c0.064,0.04,0.178,0.106,0.178,0.106s0.418,0.097,0.242,0.974
							c-0.174,0.878-0.898,7.402-0.898,7.402S243.844,31.079,242.68,31.517z"/>
					</g>
					<path style="fill:#B11116;" d="M244.588,30.286c0,0,0.285,1.161,0.162,1.778c-0.119,0.614-0.848,1.733-3.057,2.027
						c0,0,2.643-0.763,2.859-2.167C244.715,30.898,244.588,30.286,244.588,30.286z"/>
				</g>
			</g>
			<path style="fill:#F27325;" d="M239.082,31.92c0,0,0.084,1.678,1.215,2.061c0,0-1.318-0.781-0.805-3.463
				C239.492,30.518,239.09,31.326,239.082,31.92z"/>
		</g>
		<g>
			<g>
				<g>
					<g>
						<path style="fill:#B11116;" d="M252.373,32.204c0,0,1.051-8.405,1.377-9.59c0.33-1.185-0.311-1.5-0.311-1.5
							s-0.166-0.136-0.27-0.216c0,0-0.467-0.667-1.607,0.177c-1.135,0.843-5.164,11.346-5.164,11.346s-0.064,2.269,1.932,2.428
							c0.305,0.023,0.563,0.023,0.785,0.009c0.133,0.005,0.299-0.017,0.492-0.053c0.199-0.04,0.363-0.079,0.484-0.131
							c0.217-0.071,0.457-0.167,0.74-0.285C252.689,33.608,252.373,32.204,252.373,32.204z M250.148,32.219
							c-0.178,0.055-0.332,0.093-0.467,0.121c-0.078,0.02-0.176,0.037-0.301,0.043c-0.123,0.003-0.225-0.005-0.303-0.017
							c-0.137-0.021-0.295-0.047-0.477-0.098c-1.184-0.314-0.969-1.817-0.969-1.817s2.873-7.178,3.576-7.844
							c0.703-0.668,0.996-0.287,0.996-0.287c0.064,0.042,0.172,0.111,0.172,0.111s0.412,0.12,0.189,0.979
							c-0.223,0.859-1.332,7.286-1.332,7.286S251.33,31.853,250.148,32.219z"/>
					</g>
					<g>
						<path style="fill:#ED1C24;" d="M252.391,32.009c0,0,1.195-8.437,1.547-9.628c0.189-0.642,0.08-1.337-0.477-1.743
							c-0.586-0.425-1.141-0.248-1.701,0.153c-1.162,0.83-5.396,11.342-5.396,11.342s-0.092,2.284,1.922,2.471
							c0.303,0.029,0.563,0.035,0.791,0.027c0.131,0.004,0.301-0.015,0.498-0.052c0.203-0.038,0.361-0.078,0.486-0.125
							c0.217-0.066,0.467-0.157,0.75-0.273C252.697,33.423,252.391,32.009,252.391,32.009z M250.156,31.99
							c-0.184,0.051-0.34,0.094-0.477,0.114c-0.08,0.023-0.182,0.032-0.305,0.037c-0.123,0.003-0.223-0.004-0.307-0.021
							c-0.137-0.017-0.291-0.05-0.473-0.1c-1.199-0.343-0.957-1.848-0.957-1.848s3.016-7.181,3.734-7.841
							c0.721-0.664,1.014-0.274,1.014-0.274c0.063,0.043,0.17,0.118,0.17,0.118s0.41,0.13,0.168,0.989
							c-0.24,0.864-1.455,7.315-1.455,7.315S251.35,31.64,250.156,31.99z"/>
					</g>
					<path style="fill:#B11116;" d="M252.152,30.903c0,0,0.193,1.181,0.029,1.785c-0.168,0.605-0.979,1.665-3.205,1.792
						c0,0,2.691-0.563,3.018-1.943C252.23,31.523,252.152,30.903,252.152,30.903z"/>
				</g>
			</g>
			<path style="fill:#F27325;" d="M246.537,32.119c0,0-0.041,1.68,1.057,2.148c0,0-1.258-0.88-0.539-3.516
				C247.055,30.752,246.592,31.527,246.537,32.119z"/>
		</g>
	</g>
	<g>
		<path style="fill:#F4D9BF;" d="M268.576,100.699c0,0-3.779,7.178-8.492,4.472c-2.629-1.508-3.844-16.04-3.844-16.04
			s2.877-3.444,3.162-7.345c0.15-2.013-0.467-4.274-1.512-5.854l0.061-0.042c0,0-1.721-6.069-2.236-11.566
			c-0.125-1.354-0.854-2.161-1.295-2.185c-1.77-0.08-2.848,2.072-0.404,11.898c-0.42-0.17-2.369-0.851-3.461,0.691
			c0,0-3.061,0.194-3.279,2.244c0,0-1.908,0.031-1.961,3.096c-0.051,3.064,1.377,4.732,2.598,4.266c0,0-0.707,4.553,3.271,4.772
			c0,0-1.859,17.732,4.4,22.486c6.26,4.758,16.705,2.186,20.287-6.994L268.576,100.699z"/>
		<path style="opacity:0.8;fill:#EFCAA6;" d="M270.109,111.721c2.435-1.563,4.517-3.936,5.762-7.123l-7.295-3.898
			c0,0-1.826,3.462-4.518,4.672C264.934,106.908,269.088,111.086,270.109,111.721z"/>
		<g>
			<path style="fill:#E1B78C;" d="M250.178,79.678c0.275-2.729-2.902-2.705-2.902-2.705
				C249.705,77.189,250.178,79.678,250.178,79.678z"/>
			<path style="fill:#E1B78C;" d="M247.266,80.21c0,0,0.072,1.308,0.984,1.984c0.039,0.534,0.035,1.462-0.338,2.14
				c0,0,0.682-0.488,0.557-1.407c-0.043-0.296-0.08-0.499-0.121-0.67c0.414,0.267,0.967,0.415,1.742,0.293
				C250.09,82.55,247.693,81.738,247.266,80.21z"/>
			<path style="fill:#E1B78C;" d="M253.654,78.668c0,0-0.01-0.101-0.031-0.245C253.627,78.51,253.654,78.578,253.654,78.668z"/>
			<path style="fill:#E1B78C;" d="M250.555,74.729c2.479,1.352,2.969,3.084,3.068,3.694
				C253.424,75.361,250.555,74.729,250.555,74.729z"/>
			<path style="fill:#E1B78C;" d="M254.016,74.059c0,0,1.225,0.92,2.119,2.438C256.135,76.496,255.713,74.761,254.016,74.059z"/>
		</g>
	</g>
	<path style="fill:#FFD874;" d="M282.416,90.014c0,0,5.986,3.839-0.139,12.418c-4.527,6.342-8.033,11.123-8.033,11.123
		l-10.607-10.711C263.637,102.844,274.059,86.113,282.416,90.014z"/>
	<path style="fill:#FFD874;" d="M282.416,90.014c-0.379-0.177-0.762-0.296-1.146-0.391c2.111,1.941,0.734,5.306-1.02,7.979
		c-2.848,4.341-6.07,8.5-9.859,12.063l3.854,3.891c0,0,3.506-4.781,8.033-11.123C288.402,93.853,282.416,90.014,282.416,90.014z"/>
</g>
</svg>
